<?xml version="1.0" encoding="utf-8"?>
<!-- Generator: Adobe Illustrator 24.1.1, SVG Export Plug-In . SVG Version: 6.00 Build 0)  -->
<svg version="1.1" id="Layer_1" xmlns="http://www.w3.org/2000/svg" xmlns:xlink="http://www.w3.org/1999/xlink" x="0px" y="0px"
	 viewBox="0 0 512 512" style="enable-background:new 0 0 512 512;" xml:space="preserve">
<style type="text/css">
	.st0{fill:#FFFFFF;}
</style>
<path class="st0" d="M191.3,512H85.3C38.2,512,0,473.8,0,426.7V320c0-47.1,38.2-85.3,85.3-85.3h188.9c23.5,0,45.2,12.3,57.4,32.4
	l68.6-75.4c23.9-26.2,64.5-28.2,90.7-4.3c0,0,0,0,0,0c25.9,23.8,28,63.9,4.6,90.2L350.6,440.6C310.1,486,252.1,512,191.3,512z
	 M85.3,277.3c-23.6,0-42.7,19.1-42.7,42.7v106.7c0,23.6,19.1,42.7,42.7,42.7h105.9c48.7,0,95-20.8,127.4-57.1l145.2-162.9
	c7.8-8.8,7.2-22.3-1.5-30.3c-4.2-3.8-9.8-5.8-15.5-5.6c-5.7,0.2-11.1,2.8-14.9,7l-94.4,103.9c-8.4,23.4-29.1,40.2-53.7,43.8
	l-110.1,15.7c-11.7,1.7-22.5-6.4-24.1-18.1c-1.7-11.7,6.4-22.5,18.1-24.1l110.1-15.7c13.3-1.9,22.6-14.2,20.8-27.5
	c-1.7-12.1-12-21-24.2-21H85.3z M234.7,193.6c-9.7,0-19.1-3.3-26.6-9.3C171.5,155,128,110.9,128,68.3c-1.1-36.5,27.5-67,64-68.3
	c15.9,0.1,31.2,6.3,42.7,17.4C246.1,6.3,261.4,0.1,277.3,0c36.5,1.3,65.1,31.8,64,68.3c0,42.7-43.5,86.7-80.1,116
	C253.7,190.3,244.3,193.6,234.7,193.6L234.7,193.6z M192,42.7c-12.9,1.3-22.4,12.7-21.3,25.6c0,19.2,24.6,51,64.1,82.8
	c39.3-31.8,63.9-63.6,63.9-82.8c1.1-12.9-8.4-24.3-21.3-25.6C264.4,44,254.9,55.3,256,68.3c0,11.8-9.6,21.3-21.3,21.3
	s-21.3-9.6-21.3-21.3C214.4,55.3,204.9,44,192,42.7z"/>
</svg>
