<?xml version="1.0" encoding="utf-8"?>
<!-- Generator: Adobe Illustrator 24.1.1, SVG Export Plug-In . SVG Version: 6.00 Build 0)  -->
<svg version="1.1" id="Outline" xmlns="http://www.w3.org/2000/svg" xmlns:xlink="http://www.w3.org/1999/xlink" x="0px" y="0px"
	 viewBox="0 0 512 512" style="enable-background:new 0 0 512 512;" xml:space="preserve">
<style type="text/css">
	.st0{fill:#FFFFFF;}
</style>
<path class="st0" d="M373.3,40.9c-48.9,0.8-93.7,27.6-117.3,70.4c-23.7-42.8-68.4-69.6-117.3-70.4C58.9,44.4-3,111.6,0,191.3
	c0,97,102.1,202.9,187.7,274.8c39.5,33.2,97.1,33.2,136.5,0C409.9,394.2,512,288.3,512,191.3C515,111.6,453.1,44.4,373.3,40.9z
	 M296.9,433.4c-23.6,19.9-58.1,19.9-81.7,0c-109.6-92-172.5-180.2-172.5-242.1c-3-56.2,39.8-104.3,96-107.7
	c56.2,3.4,99,51.5,96,107.7c0,11.8,9.6,21.3,21.3,21.3c11.8,0,21.3-9.6,21.3-21.3c-3-56.2,39.8-104.3,96-107.7
	c56.2,3.4,99,51.5,96,107.7C469.3,253.2,406.5,341.5,296.9,433.4L296.9,433.4z"/>
</svg>
