<svg id="logoanimated" xmlns="http://www.w3.org/2000/svg" xmlns:xlink="http://www.w3.org/1999/xlink" viewBox="0 0 379 175" shape-rendering="geometricPrecision" text-rendering="geometricPrecision"><g id="logoanimated-g1"><g id="logoanimated-g2"><path id="logoanimated-path1" d="M161,111.3c-3.1-2.3-6.5-4.2-9.7-6.4-2.5-2.2-2.5-7-6.5-7.5-.8-3.5-5.7-4.6-8-1.8-.3-.1-.9-.4-1.2-.6-3.9-2.7-7.9-5.1-11.9-7.7c0-.1,0-.3,0-.4c5.2-2.8,9.7-7,12.4-12.2c3.7-6.7,4.3-15,1.6-22.2-2.2-6.1-6.7-11.2-12.2-14.7c1.7-2.1,3.6-4.3,6.3-4.9c2.1-.7,4.2.2,6.4-.2c2.8-.3,6-.6,8.1-2.8.8-1,.4-2.2,0-3.2-5.1-3.4-11.5-2.3-17.1-1.3c2.7-.6,4.8-3.4,4-6.2-.6-3.3-4.9-4.7-7.5-2.8-1.9,1.2-2.4,3.7-1.9,5.8-1.4.8-2.8,1.6-4.2,2.4-.4-.1-1.1-.4-1.5-.5-.6-1.4-1.3-2.8-1.5-4.3c2.7-1.5,3-5.6.9-7.7-2.2-2.2-6.5-1.6-7.8,1.3-1.1,1.8-.4,3.8.5,5.5-1,1.1-1.9,2.1-2.7,3.3-2.4.8-3.7-1.7-4.9-3.2.8-2,1.4-4.6-.2-6.5-2.2-2.9-7.4-2.1-8.4,1.4-1.1,2.4.6,4.6,2.2,6.3-.9,1.5-.9,3.7-2.8,4.3-1.6-.7-3-1.6-4.5-2.4c1-3.3-1.5-7.2-5.1-6.6-4.5,0-6,6.5-2.4,8.9.7.3,1.3.5,1.9.8-3.7-.6-7.4-1.5-11.1-.7-2.7.3-6.8,1.4-5.9,5c3.4,3.4,8.7,3.4,13.1,3c3.5.2,6.1,2.6,8.1,5.3-2.6,1.8-5.1,3.8-7.1,6.3C77,40.7,73.6,37,69.1,35c-2.5-.8-5.4-1.3-7.7.2-3.2,1.9-4.4,5.6-4.7,9.1-.8-2-.4-4.3-1.3-6.2-1-2.5-3.1-4.4-5.6-5.3-6.4-2.5-13.9-.5-18.9,4-4.1,3.6-7.7,8.2-8.7,13.7-1.3,6.4.5,13.1,4,18.5.6,1.1,1.5,2.1,1.6,3.3C29.2,79.8,32,87,35.3,93.9c2.2,4.3,4.4,8.6,7.3,12.5c3.7,5.1,9.7,8.5,16.1,8.9-5.2,2.5-9,7.3-10.4,12.8-2.4,1.8-4.9,4-5.6,7-.6,2.3,1.4,5.3,4,4.1.3,3.3-2.4,5.7-2.9,8.8.2.9.8,1.7,1.2,2.5-.2,1.7-.6,3.9.9,5.1c6.7,6.2,16.1,9.1,25.2,8.5c2.5-.1,3.2-2.7,4.5-4.3c10.3.4,21,.3,30.5-4.2c7.3-3.2,13.1-9.6,15.5-17.3c2.8-8.5,1.8-17.6.2-26.2c1.3,1.8,2.3,4.1,4.5,5c1.8.9,3.9.4,5.7-.3c1.7.4,3.3,2,5.2,1.2c2.4-1.1,4.1-3.2,6.2-4.8.9-.3,1.9-.1,2.7-.6.7-.2,1.2-1.4,2-.9c2.9,1.6,5.5,3.7,8.5,5.3c1.7.5,4.1.2,4.8-1.8.6-1.2,0-2.6-.4-3.9ZM139.3,96.5c.8-.2,1.6-.1,2.5,0c1.4,2.3.2,5.6-2,6.9-.4-.2-1.3-.6-1.7-.9-.3-2,0-4.3,1.2-6ZM96.2,16.3l-.1.2c-.2-2.2,1.9-4.4,4-3l.3-.1c.5,1,1.3,2.1.7,3.2-.7,1-1.8,1.5-2.7,2.2-.4-1.2-1.9-1.3-2.2-2.5ZM84.4,23c-2.1,0-3.1-2.1-2.7-3.9.8-.7,1.6-1.6,2.9-1.5c1,.4,1.7,1.2,2.4,1.9-.3,1.2-.6,2.4-.9,3.6c2.8,1.5,5.5,4.5,8.9,3.3c2.7-1.3,3-4.7,4-7.1l.9,1.2c0-.3,0-.8,0-1.1c2.3,2.1,3.9,6.2,7.7,5.2c2.6-1,4.3-3.8,5.7-6.1-1.3-1.2-2.4-3.3-.8-4.8c1.7-1.9,4.8.1,4.4,2.4-.4,1.3-1.6,1.9-2.7,2.5c0,.6,0,1.3-.1,1.9c1.5,1.8,1.3,4.9,3.8,5.9c2.1,1,4.2-.5,6-1.3l.2-.3c.8-.5,1.7-1,2.5-1.4c0-.4-.1-1.2-.1-1.5-.2-1-.1-2.1,0-3.1.6-.4,1.3-.9,2-1.2c1.3.1,2.3,1,2.9,2.1-.3,1-.1,2.3-1.3,2.7-2.3.9-3,3.4-4.4,5.3l-.3.2c-.9,2.6-2.8,4.8-4,7.3-1.7-.2-3.2-.9-4.9-1.4-6.5-1.8-13.5-1.6-20,0-1.5.6-3,1.1-4.5,1.8-2.7-4.2-5-8.5-7.6-12.6Zm4.3,16.7c1.3.6,1.8,2.2,2.9,3.1.7.2,1.4.2,2.1.2c1.2-1,.7-2.5.3-3.8-.7.4-.9-1.2-1.4-1.6c7.4-3.3,16-3.9,23.7-1.6c1.4.3,2.7.9,4,1.4-.8,1.8-2.6,3.7-1,5.6c2.3.3,3.4-1.9,4.6-3.3c4.3,1.9,7.5,5.8,10,9.7-2.2,1.1-4.8,2-7.2,1.1c1.8-1.3,3.7-2.5,4.7-4.5-1.8,1.5-3.8,3.1-6.2,3.4-2.6-.5-5.4-.5-7.7.7-2.3,1.1-3.8,3.2-4.9,5.4-1,3.1-.7,6.6,1.4,9.1c1.1,1.6,2.9,2.2,4.5,3.2c3.6.6,7.5-.3,9.9-3.2c2.9-2.5,3.1-6.5,2.5-10c1.3,0,2.7.1,3.9-.6-2-.1-4.1-.2-5.7-1.7c1.8-.6,3.5-1.4,5.1-2.3c2.4,3.5,3.2,7.8,3.2,12c0,8.3-4.7,16.1-11.5,20.8-8.2,5.8-19.1,7.6-28.7,4.5-11.8-3-21.6-14.1-21.1-26.6.1-.1.2-.4.3-.5-.1-8.4,5.5-15.8,12.3-20.5Zm29.5,26.6c-4.3-1.6-6-7.1-4-11c1.3-2.2,3.6-3.8,6.1-4c4.1-.4,8.1,2.9,8.4,7c.8,5.4-5.4,10.3-10.5,8ZM81.1,114.4c-.5,1.3-1.5,2.2-2.4,3.3-.9-.6-2.2-1-1.9-2.3-.8.2-1.7.4-2.5.5-.7,1.8-1.4,3.6-1.4,5.5-2.5.6-3.9-1.9-4.8-3.8h-.5c-.1.4-.3,1.1-.4,1.4-.2-.2-.5-.4-.7-.6-.7-1.4-1.2-2.8-2-4.1-.3.2-.8.7-1,.9-.2-.6-.4-1.3-.5-1.9c1.2-5,6.8-6.4,11.2-7.2-.4-.7-1-1.1-1.7-1.3c1.8-1.9,3.1-4.2,4.7-6.2.6-1,1.9-.3,2.8-.2c2,.5,3.7,1.6,5.3,2.8c1.3,1.5,4.2,4.2,1.6,5.8-1.9,1.2-3.3,4-5.8,3.3.1,1.4.3,2.8,0,4.1Zm-3.3,5.7c-.2,1-.3,2-.5,2.9-.4-.1-1.2-.2-1.5-.3-.4-1.4-.2-2.8.1-4.2.7.5,1.3,1,1.9,1.6Zm5.1-23.3c-.4-.1-1.1-.4-1.5-.5c2.4-2.9,5-5.9,8.3-7.7.7-.5,1.6-.6,2.4-.7-3.9,1.9-6.8,5.3-9.2,8.9Zm-31.2-35c2.4-1.7,3.8-4.4,4-7.3-.1-.6-.4-1.9-.5-2.5.5.3,1.5,1,2,1.3c1.2,6.6,3.3,13,5.9,19.1-1.9-.9-3.4-2.5-5.2-3.7-2.6-2-5.4-3.5-8.1-5.3.3-.8,1.4-1,1.9-1.6Zm-4.5.2c-1.5-.6-3.1-1.2-4.5-2.2c2.6-.6,5.1-1.5,7.2-3.2c1.1-1.2,2.2-2.5,2.9-4.1.9,1.4.6,3.3-.1,4.8-1.1,2.2-3.5,3.3-5.5,4.7Zm12.9-7c4.4,3.1,9.3,5.7,13.6,9c.9,9.2,6.6,17.4,14.4,22.2c0,.2,0,.5,0,.6-1.7,1.2-3.3,2.4-4.7,3.9-.3.4-1,1.1-1.5.4-4.1-4.7-8.3-9.2-12.9-13.4-.9-.8-1.9-1.7-2.3-2.9C64,68.4,61.2,61.9,60.1,55Zm-.2-14.6c1.1-3,4.5-4.7,7.6-3.5c4.3,1.7,7.7,5.1,10.7,8.5c1,1.1-.5,2.3-1,3.3-1.1,2.3-2.1,4.5-2.7,7-4.1-2.6-8.1-5.2-12.1-7.8-.8-.7-2.3-.6-2.6-1.8l-.8-.3c.1-1.8,0-3.7.9-5.4ZM73.1,57.5c1.4.6.6,2.3.7,3.5-6.9-4.3-13.7-8.7-20.6-13.2.5-.7,1-1.4,1.6-2.1c6.1,4,12.2,7.8,18.3,11.8Zm-40-19.6c5.1-4.1,13.2-5.7,18.5-1.3c1.9,1.7,2.4,4.4,2.2,6.9-1.2.9-2.5,2-2.6,3.7h-.3c-1.8,1.6-4.8,1-6.8,0-3-1.4-3.8-5.5-7.1-6.5-2.1-.8-4.3-.5-6.4-.1.5-1.2,1.6-1.9,2.5-2.7ZM28.9,60.5c-1.2,1.6-1.4,3.6-1.8,5.5-3.7-6.8-4.3-15.7.6-22.1c2.5-1.2,5.3-1.8,8.1-1.3c2.5.7,3.4,3.4,5.1,5.2c1.4.9,2.8,1.9,4.5,2.4c1.9.4,3.8.1,5.7,0-.4,1.3-.9,2.6-1.7,3.7-3.8,3.6-9.3,4.4-14.3,4.1-2.4-.3-4.9.5-6.2,2.5ZM58,113l-.2-.1c-5.8-.5-11.1-4.2-14.2-9.1-1.7-2.7-3.6-5.3-4.7-8.3-.1-.1-.4-.4-.6-.5-4.2-9.5-9-19.3-8.8-30v0c.4-1.8,1-3.8,2.9-4.5c3.6-.8,7.1.8,10.4,2.1c15,6.7,27,18.4,37.8,30.4-.4,1-.8,2.2-1.9,2.8-.7,0-1.5,0-2.2.1-2.4,2.9-4.4,6.1-6.8,9-3,.8-6.1,2-7.9,4.7-.8,1-.7,2.5-1.7,3.4-.7,0-1.4,0-2.1,0Zm3.5,3.7c2,2,3.8,4.8,6.7,5.4c1.1,1.3,2.7,2,4.4,2.1-.3,2-.5,3.9-.5,5.9-6.7-2.6-13.8-4.2-21-3.4c1.9-4.6,5.7-8.4,10.4-10Zm10.2,45.1c-4.1.4-8.2.2-12.1-1.1-4.5-1.1-8.7-3.7-12.2-6.7c0-.8-.1-1.6-.1-2.5c4.2-.4,5.6-4.9,6.7-8.3.8-2,2.7-4.6,5.2-3.7c4.2,1.7,8.5,3.1,13,3.9c2.4.6,5,.6,7.4.6.4-.1,1.2-.2,1.6-.3-3.3,6-6.2,12.2-9.5,18.1Zm5-4.3c.4-1,.9-1.9,1.3-2.9c1.2,1,2.4,2.1,3.5,3.2-1.6,0-3.2-.1-4.8-.3Zm.7-15.8c-6.2-.3-12.2-2.3-17.9-4.6-1.8-.7-3.7.2-5.2,1.3-3,2.5-2.7,7.1-5.4,9.9-.7.9-2.1.8-2.7-.1.6-3.9,4.4-6,6.4-9.1c1.4-1.9,2.8-5,.6-6.8-1.3-.1-2.9-.5-4,.5-1.7,1.2-2.5,3.3-4.2,4.4-.5-3.7,3.3-6.2,6.1-7.9c9.6-1.2,19.3,1.9,27.6,6.7c1.8,1.1,3.9,2.6,4.4,4.8-1.8.7-3.8,1.1-5.7.9Zm-28.4-2c.1-1.4.3-2.7.5-4c.7-.6,1.4-1.5,2.4-1.4.3,2.2-1.6,3.9-2.9,5.4Zm35-2.5c-2.5-2.2-5.3-4.1-8.3-5.4v-.1c-.8-.2-1.1-.7-1.1-1.4-.1-1.7,0-3.3.1-5c.4.3.9.5,1.3.8.9-.2,1.7-.4,2.6-.6.6-.5,1.1-1,1.5-1.6-1.1-1.5,1.8-1.3.9.1h.5c2.5,3.8,3.2,8.6,2.5,13.2Zm9.4,19.6c5.7-1.3,11.1-4.2,15.3-8.2c1.4-.1,2.8-.2,4.2-.3-5.3,5-12.4,7.8-19.5,8.5Zm24.3-15.2c-.6,1.2-1.2,2.5-2.3,3.3-4.3,1.5-9.1,1.9-13.6,1.2-1.6-.2-3.2-.5-4.7-1-4.1-.8-7.9-2.8-11.6-4.6c1.4-4.9,1.4-10.2-.4-15c3.1,1.9,6.4,3.7,9.9,4.7.8-1.1,1.6.2,2.2.8c1.7.4,3.3.8,5,1.2c5.2.5,10.4.5,15.5-1v-.1c1.1-.3,2.1-.6,3.2-1-.2,4.1-1.5,7.9-3.2,11.5Zm.2-12.8c.9-4.8.8-9.7.8-14.6.2.1.6.1.8.2c1.4,4.1,1.4,8.5,1.7,12.8-1,.6-2.1,1.1-3.3,1.6Zm4.1-20.2c-1.3,2.8-4.4,4-7.2,4.6-8.5,1.9-17.8-.5-24.3-6.3.3-1.3,0-2.6-.7-3.8-1.2-1.9,1.5-3.3,2.6-4.4c0-.1-.1-.2-.1-.3l.2-.1c1.6-2.8,2.8-6.2,1.2-9.3c5.3,1.3,10.8,2.6,16.4,1.8c1.7-.1,3.4-.5,5.2-.3c2.2,1.4,4.3,2.9,6.6,4.2c1.5,4.4,2.2,9.6.1,13.9Zm-4.2-19.3c1.4-.2,2.9-1.3,4.2-.4c4.7,3,9.4,6,14.1,9-.1.9-.2,1.8-.3,2.7-1.1-.3-2.1-.8-3-1.5-5-3.3-10.1-6.4-15-9.8Zm8.4,8.4c2.4,1.6,4.9,3.1,7.3,4.7-.3.6-.7,1.2-1,1.7-.7.2-1.4.6-2.1.7-1.6-2.3-2.8-4.8-4.2-7.1Zm10.2,18.2c-1.9-.2-3.3-1.4-4.6-2.6-1.1-2-2.8-5.6.3-6.7.3,2,1.6,3.6,3.2,4.7c1.8.7,3.6,1.3,5.5.7-1.4,1.4-2.9,2.6-4.4,3.9Zm4-6c-2.5.1-6-1.3-5.8-4.3.3-.5.2-2,1.1-1.6c1.3,1,2.9,1.6,4.6,1.6c1.1.5,2.3,1.4,2.2,2.8-.6.5-1.4,1-2.1,1.5Zm3.7-4.8c-.3-.2-1-.6-1.3-.9.7-1.4,1.3-2.8,1.8-4.3.8.1,1.6.4,1.9,1.3.3,1.8-1.4,2.8-2.4,3.9Zm.5,2.6c1.2-1.1,2.4-2.2,3.7-3.2.3,2-1.6,4.5-3.7,3.2Zm13.1,7.4c-3-1.7-5.7-3.9-8.8-5.5.5-.9.9-1.7,1.4-2.6c2.9,1.6,5.7,3.5,8.5,5.4.8.4.6,1.4.7,2.1-.6.1-1.4.4-1.8.6Z" fill="#010101"/><path id="logoanimated-path2" d="M101.2,16.6c-.7,1-1.8,1.5-2.7,2.2-.4-1.1-2-1.3-2.3-2.5l-.1.2c-.2-2.2,1.9-4.4,4-3l.3-.1c.5,1,1.4,2,.8,3.2Z" fill="#00c47d"/><path id="logoanimated-path3" d="M131.3,19.7c-.3,1-.1,2.3-1.3,2.7-2.3.9-3,3.4-4.4,5.3l-.3.2c-.9,2.6-2.8,4.8-4,7.3-1.7-.2-3.2-.9-4.9-1.4-6.5-1.8-13.5-1.6-20,0-1.5.6-3,1.1-4.5,1.8-2.7-4.1-5-8.4-7.6-12.5-2.1,0-3.1-2.1-2.7-3.9.8-.7,1.6-1.6,2.9-1.5c1,.4,1.7,1.2,2.4,1.9-.3,1.2-.6,2.4-.9,3.6c2.8,1.5,5.5,4.5,8.9,3.3c2.7-1.3,3-4.7,4-7.1l.9,1.2c0-.3,0-.8,0-1.1c2.3,2.1,3.9,6.2,7.7,5.2c2.6-1,4.3-3.8,5.7-6.1-1.3-1.2-2.4-3.3-.8-4.8c1.7-1.9,4.8.1,4.4,2.4-.4,1.3-1.6,1.9-2.7,2.5c0,.6,0,1.3-.1,1.9c1.5,1.8,1.3,4.9,3.8,5.9c2.1,1,4.2-.5,6-1.3l.2-.3c.8-.5,1.7-1,2.5-1.4c0-.4-.1-1.2-.1-1.5-.2-1-.1-2.1,0-3.1.6-.4,1.3-.9,2-1.2c1.3,0,2.3.9,2.9,2Z" fill="#00c47d"/><path id="logoanimated-path4" d="M88.1,86.1c0,.2,0,.5,0,.6-1.7,1.2-3.3,2.4-4.7,3.9-.3.4-1,1.1-1.5.4-4.1-4.7-8.3-9.2-12.9-13.4-.9-.8-1.9-1.7-2.3-2.9C64,68.4,61.2,61.9,60.1,55c4.4,3.1,9.3,5.7,13.6,9c.9,9.1,6.7,17.3,14.4,22.1Z" fill="#00c47d"/><path id="logoanimated-path5" d="M77.2,48.6c-1.1,2.3-2.1,4.5-2.7,7-4.1-2.6-8.1-5.2-12.1-7.8-.8-.7-2.3-.6-2.6-1.8l-.8-.2c.1-1.8.1-3.7.9-5.4c1.1-3,4.5-4.7,7.6-3.5c4.3,1.7,7.7,5.1,10.7,8.5c1,1.1-.6,2.3-1,3.2Z" fill="#00c47d"/><path id="logoanimated-path6" d="M81.2,143.8c-3.2,5.9-6.2,12.1-9.5,18-4.1.4-8.2.2-12.1-1.1-4.5-1.1-8.7-3.7-12.2-6.7c0-.8-.1-1.6-.1-2.5c4.2-.4,5.6-4.9,6.7-8.3.8-2,2.7-4.6,5.2-3.7c4.2,1.7,8.5,3.1,13,3.9c2.4.6,5,.6,7.4.6.4,0,1.2-.1,1.6-.2Z" fill="#00c47d"/><path id="logoanimated-path7" d="M120.8,130.2c-.2,4-1.4,7.9-3.1,11.5-.6,1.2-1.2,2.5-2.3,3.3-4.3,1.5-9.1,1.9-13.6,1.2-1.6-.2-3.2-.5-4.7-1-4.1-.8-7.9-2.8-11.6-4.6c1.4-4.9,1.4-10.2-.4-15c3.1,1.9,6.4,3.7,9.9,4.7.8-1.1,1.6.2,2.2.8c1.7.4,3.3.8,5,1.2c5.2.5,10.4.5,15.5-1v-.1c1-.3,2.1-.7,3.1-1Z" fill="#00c47d"/><path id="logoanimated-path8" d="M122,108.6c-1.3,2.8-4.4,4-7.2,4.6-8.5,1.9-17.8-.5-24.3-6.3.3-1.3,0-2.6-.7-3.8-1.2-1.9,1.5-3.3,2.6-4.4c0-.1-.1-.2-.1-.3l.2-.1c1.6-2.8,2.8-6.2,1.2-9.3c5.3,1.3,10.8,2.6,16.4,1.8c1.7-.1,3.4-.5,5.2-.3c2.2,1.4,4.3,2.9,6.6,4.2c1.5,4.4,2.2,9.6.1,13.9Z" fill="#00c47d"/><path id="logoanimated-path9" d="M80.6,93c-.4,1-.8,2.2-1.9,2.8-.7,0-1.5,0-2.2.1-2.4,2.9-4.4,6.1-6.8,9-3,.8-6.1,2-7.9,4.7-.8,1-.7,2.5-1.7,3.4-.7.1-1.4.1-2.1.1l-.2-.1c-5.8-.5-11.1-4.2-14.2-9.1-1.7-2.7-3.6-5.3-4.7-8.3-.1-.1-.4-.4-.6-.5-4.2-9.5-9-19.3-8.8-30v0c.4-1.8,1-3.8,2.9-4.5c3.6-.8,7.1.8,10.4,2.1c15,6.6,27,18.3,37.8,30.3Z" fill="#00c47d"/></g><path id="logoanimated-path10" d="M29,47.1c2-1.8,5-2.2,7.5-1.5-.9,1.3-2.8.8-3.9,1.8C29,49.2,28.1,53.5,27,57c-.8-.5-.7-1.6-1-2.4c0-.5,0-1,0-1.5.5-2.2,1.2-4.6,3-6Z" fill="#010101"/><path id="logoanimated-path11" d="M84.6,56.3c1.5.3,1.7,2.2,3.1,2.8c3.2-1.4,7.1-2,10.2,0c1.2.9,2.6,1.9,3.1,3.4-2.8-1.5-6.1-3.3-9.3-2.1-2.5.5-4.4,2.8-7.1,2.8-2,.2-4.3-.8-5.1-2.8.8.1,1.6.2,2.3.4.3.2,1,.6,1.4.8-.2-.9-.5-1.8-1-2.6-.1.1-.4.3-.5.4l-.1.1c.1-.8.2-1.6.4-2.5c1.3,1.2,2,2.9,3.8,3.5-.5-1.4-.9-2.8-1.2-4.2Z" fill="#010101"/><path id="logoanimated-path12" d="M102.8,65.8c2.2-1.2,5.2-1.5,7.1.4c1.1,1,.5,2.7-.7,3.4-2,1.1-4.9,1.1-6.6-.6-.8-1-.2-2.3.2-3.2Z" fill="#010101"/><path id="logoanimated-path13" d="M89.4,72.9c2.2-.1,4.4-.6,6.4-1.8.2,1-.3,1.9-1,2.6c4.2,4.8,11.1,7,17.4,5.7c2-.4,3.8-1.3,5.8-1.3-1.6,1.9-4.2,2.5-6.5,3.1-6.7,1.5-14.1-1.2-18.4-6.7-1.4-.1-3.2.1-3.7-1.6Z" fill="#010101"/><path id="logoanimated-path14" d="M139.5,80.6c.1-.3.4-.8.5-1.1.2,1.3.5,2.5.8,3.8.9.3,1.8.6,2.7,1-.9.3-1.7.5-2.6.8-.4,1.3-.7,2.5-1.1,3.8-.3-1.2-.4-2.5-1-3.6-.7-.7-1.8-.6-2.6-1c.8-.4,1.7-.7,2.6-.9.3-.9.5-1.8.7-2.8Z" fill="#010101"/><path id="logoanimated-path15" d="M120.7,124.3c1.1-2.3,1-5,2.2-7.2.3,1.2.4,2.5,1.1,3.6.7,1-.7,2.4.5,3.2c1.5,1,3.4,1.2,5.1,1.9-1.7.6-3.4.9-5,1.8-1.1,2-1,4.4-1.7,6.5-1.2-1.4-1-3.4-1.7-5.1-.4-2.5-3.7-2.1-5.4-3.3c1.7-.6,3.4-.8,4.9-1.4Z" fill="#010101"/><path id="logoanimated-path16" d="M45,117c.4-1.2.7-2.4,1.1-3.6.3,1.2.6,2.3.9,3.5.9.3,1.7.6,2.6.9-.9.3-1.8.6-2.7.9-.2,1.1-.4,2.1-.7,3.2-.7-.8-.6-1.9-.9-2.8-.6-.8-1.8-.9-2.6-1.2.7-.4,1.5-.7,2.3-.9Z" fill="#010101"/><path id="logoanimated-path17" d="M117.7,151.8c1.8-.2,2.1-2.1,2.5-3.6.1,1.6.3,3.3,2.1,3.8-1.9-.2-1.9,1.7-2.2,3-.4-1.3-.8-2.8-2.4-3.2Z" fill="#010101"/></g><g id="logoanimated-g3"><g id="logoanimated-g4"><path id="logoanimated-path18" d="M194.55453,98.88964c-.3-.3-.4-.6-.4-1v-.7c0-1.1-.5-1.9-1.4-2.3s-1.9-.6-3.1-.6-2.2.2-3.1.6-1.4,1.2-1.4,2.3v12.6c0,1.1.5,1.9,1.4,2.3s1.9.6,3.1.6s2.2-.2,3.1-.6s1.4-1.2,1.4-2.3v-.7c0-.4.1-.7.4-1s.6-.4,1-.4h7.4c.4,0,.7.1,1,.4s.4.6.4,1v3c0,2.2-.4,4-1.3,5.5-.9,1.4-2,2.5-3.4,3.4s-3,1.4-4.8,1.7-3.6.5-5.5.5-3.7-.2-5.5-.5-3.3-.9-4.7-1.7-2.5-1.9-3.3-3.4c-.8-1.4-1.3-3.3-1.3-5.5v-17.2c0-2.2.4-4.1,1.3-5.5.8-1.4,2-2.6,3.3-3.4c1.4-.8,3-1.4,4.7-1.7c1.8-.3,3.6-.5,5.5-.5c1.8,0,3.7.2,5.5.5s3.4.9,4.8,1.7s2.5,2,3.4,3.4s1.3,3.2,1.3,5.5v3c0,.4-.1.7-.4,1s-.6.4-1,.4h-7.4c-.3.1-.7-.1-1-.4Z" transform="translate(-38.354525 43.044389)" fill="#00c47d"/><path id="logoanimated-path19" d="M240,121.4c-.3.3-.6.4-1,.4h-7.4c-.4,0-.7-.1-1-.4s-.4-.6-.4-1v-9.7h-8.9v9.7c0,.4-.1.7-.4,1s-.6.4-1,.4h-7.4c-.4,0-.7-.1-1-.4s-.4-.6-.4-1v-25.7c0-2.1.4-3.9,1.3-5.5.8-1.6,2-2.8,3.3-3.8c1.4-1,3-1.7,4.8-2.2s3.6-.7,5.5-.7s3.7.2,5.5.7s3.4,1.2,4.8,2.2s2.5,2.3,3.3,3.8c.8,1.6,1.3,3.4,1.3,5.5v25.6c-.5.4-.6.8-.9,1.1Zm-10-21.1v-5.2c0-.7-.5-1.2-1.5-1.6s-2-.6-3-.6-2,.2-3,.6-1.5.9-1.5,1.6v5.2h9Z" fill="#00c47d"/><path id="logoanimated-path20" d="M256.8,120.3c0,.4-.1.7-.4,1s-.6.4-1,.4h-7.4c-.4,0-.7-.1-1-.4s-.4-.6-.4-1v-36.4c0-.4.1-.7.4-1s.6-.4,1-.4h16.9c2.2,0,4.2.4,5.9,1.1s3.1,1.7,4.2,2.9s2,2.5,2.5,4c.6,1.5.9,3.1.9,4.6c0,2.8-.9,5.1-2.6,7.1-1.7,1.9-4.3,3.2-7.7,3.8l11.7,15.9h-11.3c-.5,0-.9-.2-1.2-.5s-.5-.7-.8-1L256.7,107v13.3ZM267,96.6c.6-.5.9-1,.9-1.5s-.3-1.1-.9-1.5c-.6-.5-1.5-.7-2.7-.7h-7.5v4.5h7.5c1.2-.1,2.1-.3,2.7-.8Z" fill="#00c47d"/><path id="logoanimated-path21" d="M306,83.3c1.8.6,3.4,1.4,4.8,2.5s2.5,2.5,3.4,4.2c.8,1.7,1.3,3.6,1.3,5.8v12.7c0,2.2-.4,4.2-1.3,5.8-.8,1.7-2,3-3.4,4.2s-3,1.9-4.8,2.5c-1.8.5-3.6.8-5.4.8h-14.9c-.4,0-.7-.1-1-.4s-.4-.6-.4-1v-36.5c0-.4.1-.7.4-1s.6-.4,1-.4h14.9c1.8,0,3.6.2,5.4.8Zm-2.3,11.1c-.9-1-1.9-1.6-3.1-1.6h-5.9v18.6h5.9c1.1,0,2.2-.5,3.1-1.5s1.4-2.6,1.4-4.6v-6.2c0-2.1-.5-3.6-1.4-4.7Z" fill="#00c47d"/><path id="logoanimated-path22" d="M329.5,112.5c1.5.3,2.8.5,4,.5c1.3,0,2.3-.2,3.1-.6s1.2-1,1.2-1.7c0-1-.4-1.8-1.3-2.5-.8-.7-1.9-1.3-3.2-1.9s-2.6-1.3-4.1-1.9c-1.5-.7-2.9-1.5-4.1-2.5s-2.3-2.2-3.2-3.6-1.3-3.1-1.3-5.2c0-1.7.4-3.3,1.1-4.6s1.7-2.5,3-3.3s2.7-1.6,4.5-2c1.7-.4,3.5-.7,5.5-.7s4.1.2,6.2.7s4.2,1.2,6.2,2.2l-3,8.2c-1.7-.8-3.3-1.4-4.8-1.8-1.5-.3-2.8-.5-4-.5-1.3,0-2.4.2-3.2.6s-1.2,1-1.2,1.7c0,1,.4,1.8,1.3,2.5.8.7,1.9,1.3,3.2,1.9s2.6,1.3,4.1,1.9c1.5.7,2.9,1.5,4.1,2.5c1.3,1,2.3,2.2,3.2,3.6s1.3,3.1,1.3,5.2c0,1.7-.4,3.3-1.1,4.6s-1.7,2.5-3,3.3c-1.3.9-2.7,1.6-4.5,2-1.7.4-3.5.7-5.5.7s-4.1-.2-6.2-.7-4.2-1.2-6.2-2.2l3-8.2c1.8.8,3.4,1.4,4.9,1.8Z" fill="#00c47d"/></g><g id="logoanimated-g5" transform="translate(-227.8427 31.578753)"><g id="logoanimated-g6"><path id="logoanimated-path23" d="M177,76.3c-.4,0-.8-.1-1.1-.4s-.5-.6-.5-1v-36.5c0-.4.2-.7.5-1s.7-.4,1.1-.4h29.5v10.4h-19.7v4.5h19.7v9.7h-19.7v4.5h19.7v10.4h-29.5Z"/><path id="logoanimated-path24" d="M224.1,37.3c.3.3.5.6.5,1v36.4c0,.4-.2.7-.5,1s-.7.4-1.1.4h-8.2c-.4,0-.8-.1-1.1-.4s-.5-.6-.5-1v-36.3c0-.4.2-.7.5-1s.7-.4,1.1-.4h8.2c.4-.1.7,0,1.1.3Z"/><path id="logoanimated-path25" d="M255.1,37.7c2,.6,3.7,1.4,5.3,2.5s2.8,2.5,3.7,4.2s1.4,3.6,1.4,5.8v12.8c0,2.2-.5,4.2-1.4,5.8-.9,1.7-2.2,3-3.7,4.2-1.6,1.1-3.3,1.9-5.3,2.5-2,.5-4,.8-6,.8h-16.4c-.4,0-.8-.1-1.1-.4s-.5-.6-.5-1v-36.5c0-.4.2-.7.5-1s.7-.4,1.1-.4h16.4c2.1-.1,4.1.2,6,.7Zm-2.6,11.2c-1-1-2.1-1.6-3.4-1.6h-6.6v18.6h6.6c1.3,0,2.4-.5,3.4-1.5s1.5-2.6,1.5-4.6v-6.2c.1-2.1-.4-3.7-1.5-4.7Z"/></g><circle id="logoanimated-circle1" r="7" transform="translate(218.6 25.5)" fill="#00c47d"/></g><g id="logoanimated-g7"><path id="logoanimated-path26" d="M186.2,143.9c.3,0,.5,0,.6-.1v1.1c-.3.1-.7.2-1.1.2-1.1,0-1.7-.5-1.8-1.4-.8,1-1.9,1.4-3.2,1.4-.9,0-1.6-.2-2.1-.7s-.8-1.1-.8-1.8c0-.9.4-1.6,1.1-2.1s1.7-.7,2.9-.7c.7,0,1.4.1,2.1.2v-.7c0-.5-.2-.9-.6-1.3-.4-.3-1-.5-1.8-.5-1.1,0-2.1.2-3.1.7l-.3-1.2c1-.5,2.2-.7,3.6-.7c1.2,0,2.1.3,2.8.8s.9,1.3.9,2.2v3.7c0,.3.1.5.2.7.1.1.3.2.6.2Zm-5,0c1,0,1.9-.4,2.7-1.3v-1.5c-.6-.1-1.3-.2-2-.2-1.7,0-2.5.5-2.5,1.5c0,.5.2.8.5,1.1.3.2.8.4,1.3.4Z"/><path id="logoanimated-path27" d="M192.6,136.2c1,0,1.7.3,2.3.8.5.5.8,1.3.8,2.3v5.6h-1.5v-5.5c0-.6-.2-1.1-.5-1.4s-.9-.5-1.5-.5c-.9,0-1.7.4-2.4,1.2v6.3h-1.5v-8.5h1.4l.1,1.3c.6-1.1,1.6-1.6,2.8-1.6Z"/><path id="logoanimated-path28" d="M207.2,133.3c2.9,0,4.4,1,4.4,3.1c0,1.2-.6,2-1.7,2.4.7.1,1.2.5,1.5,1s.5,1.1.5,1.7c0,1.1-.4,2-1.1,2.5s-1.8.8-3.2.8h-5.4v-11.6h5Zm0,4.7c.6,0,1.1-.1,1.4-.3s.5-.5.5-1-.2-.8-.5-1-.8-.3-1.4-.3h-2.4v2.7h2.4Zm-2.4,2v2.9h2.8c1.2,0,1.9-.5,1.9-1.4c0-1-.6-1.5-1.9-1.5h-2.8Z"/><path id="logoanimated-path29" d="M222.1,140.4c0,.1,0,.4-.1.9h-6.1c.1.7.4,1.2.8,1.5.4.4,1,.5,1.7.5c1,0,2-.2,2.8-.6l.4,1.6c-.9.5-2.1.7-3.5.7-1.6,0-2.8-.4-3.6-1.2s-1.2-1.9-1.2-3.2.4-2.4,1.2-3.2s1.9-1.2,3.3-1.2s2.5.4,3.1,1.2s1.2,1.8,1.2,3Zm-6.2-.6h3.8c0-1.3-.6-1.9-1.8-1.9-1.1,0-1.8.6-2,1.9Z"/><path id="logoanimated-path30" d="M232.1,140.4c0,.1,0,.4-.1.9h-6c.1.7.4,1.2.8,1.5.4.4,1,.5,1.7.5c1,0,2-.2,2.8-.6l.4,1.6c-.9.5-2.1.7-3.5.7-1.6,0-2.8-.4-3.6-1.2s-1.2-1.9-1.2-3.2.4-2.4,1.2-3.2s1.9-1.2,3.3-1.2s2.5.4,3.1,1.2s1.1,1.8,1.1,3Zm-6.1-.6h3.8c0-1.3-.6-1.9-1.8-1.9s-1.8.6-2,1.9Z"/><path id="logoanimated-path31" d="M241,142.4h-1.4l-3.2-4.8v7.3h-2.3v-11.6h2.4l3.9,5.9l3.8-5.9h2.4v11.4l-2.5.3v-7.5l-3.1,4.9Z"/><path id="logoanimated-path32" d="M257.4,140.4c0,.1,0,.4-.1.9h-6.1c.1.7.4,1.2.8,1.5.4.4,1,.5,1.7.5c1,0,2-.2,2.8-.6l.4,1.6c-.9.5-2.1.7-3.5.7-1.6,0-2.8-.4-3.6-1.2s-1.2-1.9-1.2-3.2.4-2.4,1.2-3.2s1.9-1.2,3.3-1.2s2.5.4,3.1,1.2c.9.8,1.2,1.8,1.2,3Zm-6.2-.6h3.8c0-1.3-.6-1.9-1.8-1.9-1.1,0-1.8.6-2,1.9Z"/><path id="logoanimated-path33" d="M262.6,136.2c1.1,0,2,.5,2.7,1.4v-4.9l2.4-.3v12.4h-2.2l-.2-1.2c-.7.9-1.6,1.4-2.7,1.4-1.2,0-2.1-.4-2.8-1.2s-1-1.9-1-3.2.3-2.4,1-3.2s1.6-1.2,2.8-1.2Zm.8,7.1c.7,0,1.4-.3,1.9-.9v-3.6c-.5-.6-1.2-.8-1.9-.8s-1.2.2-1.6.7-.6,1.1-.6,1.9.2,1.4.6,1.9.9.8,1.6.8Z"/><path id="logoanimated-path34" d="M271.1,135.2l-1.7-1.6l1.7-1.6l1.6,1.6-1.6,1.6Zm1.2,9.7h-2.4v-8.5h2.4v8.5Z"/><path id="logoanimated-path35" d="M282.8,143.3c.2,0,.4,0,.5-.1v1.7c-.4.1-.8.2-1.3.2-1.2,0-1.9-.5-2.1-1.4-.7.9-1.7,1.4-3,1.4-.9,0-1.6-.2-2.1-.7s-.8-1.1-.8-1.8c0-1,.4-1.7,1.1-2.2s1.7-.7,3-.7c.4,0,.9,0,1.6.1v-.6c0-.8-.6-1.3-1.9-1.3-1,0-2,.2-3,.7l-.4-1.7c1.1-.5,2.3-.7,3.8-.7c1.3,0,2.3.3,3,.8.7.6,1,1.4,1,2.4v3.1c0,.3,0,.5.1.6s.3.2.5.2Zm-5,0c.7,0,1.4-.3,2-.8v-1.1c-.4-.1-.9-.1-1.5-.1-1.2,0-1.9.4-1.9,1.1c0,.3.1.6.4.8.3,0,.6.1,1,.1Z"/><path id="logoanimated-path36" d="M288,142.6c1.2.8,2.5,1.2,3.9,1.2.8,0,1.5-.1,2-.4s.8-.8.8-1.4c0-.4-.1-.7-.4-1-.2-.3-.6-.5-.9-.7s-.8-.3-1.3-.5-.9-.3-1.4-.5-.9-.4-1.3-.6-.7-.5-.9-1c-.2-.4-.4-.9-.4-1.4c0-1,.4-1.8,1.1-2.3s1.7-.7,2.8-.7c1.4,0,2.7.3,4,1l-.2,1.4c-1.2-.7-2.4-1.1-3.6-1.1-1.7,0-2.5.5-2.5,1.6c0,.4.1.7.4.9s.6.5.9.6c.4.2.8.3,1.3.4s.9.3,1.4.5.9.4,1.3.6.7.6.9,1s.4.9.4,1.5c0,1.1-.4,2-1.2,2.5s-1.8.8-3,.8c-1.6,0-2.9-.3-4.1-1v-1.4Z"/><path id="logoanimated-path37" d="M306.3,140.4c0,.3,0,.6,0,.7h-6.7c.1.9.4,1.6.9,2.1s1.3.7,2.2.7c1,0,2-.2,2.9-.7l.3,1.1c-1,.5-2.1.7-3.3.7-1.5,0-2.7-.4-3.5-1.2s-1.2-1.9-1.2-3.2.4-2.4,1.2-3.2s1.9-1.2,3.2-1.2c.7,0,1.4.1,1.9.3s.9.5,1.2,1s.5.8.6,1.3c.2.5.3,1,.3,1.6Zm-6.7-.4h5.2c0-.8-.2-1.4-.6-1.9s-1-.7-1.9-.7c-.7,0-1.3.2-1.8.7s-.8,1-.9,1.9Z"/><path id="logoanimated-path38" d="M313.4,137.7c-.7,0-1.4.2-2,.5s-1.1.7-1.4,1.2v5.5h-1.5v-8.5h1.4l.1,1.9c.3-.6.8-1.1,1.4-1.5s1.2-.6,1.9-.6l.1,1.5Z"/><path id="logoanimated-path39" d="M318.8,143l2.8-6.6h1.7l-3.9,8.7h-1.3l-3.9-8.7h1.7l2.9,6.6Z"/><path id="logoanimated-path40" d="M325.7,134.8l-1.2-1.1l1.2-1.1l1.1,1.1-1.1,1.1Zm.8,10.1h-1.5v-8.5h1.5v8.5Z"/><path id="logoanimated-path41" d="M333.3,143.9c.8,0,1.7-.2,2.7-.7l.3,1.1c-1,.5-2,.7-3.1.7-1.4,0-2.5-.4-3.3-1.2s-1.2-1.9-1.2-3.2.4-2.4,1.2-3.2s1.9-1.2,3.3-1.2c1.1,0,2.1.2,3.1.7L336,138c-.9-.5-1.8-.7-2.7-.7s-1.7.3-2.3.9-.9,1.4-.9,2.4.3,1.8.9,2.4s1.3.9,2.3.9Z"/><path id="logoanimated-path42" d="M346,140.4c0,.3,0,.6,0,.7h-6.7c.1.9.4,1.6.9,2.1s1.3.7,2.2.7c1,0,2-.2,2.9-.7l.3,1.1c-1,.5-2.1.7-3.3.7-1.5,0-2.7-.4-3.5-1.2s-1.2-1.9-1.2-3.2.4-2.4,1.2-3.2s1.9-1.2,3.2-1.2c.7,0,1.4.1,1.9.3s.9.5,1.2,1c.3.4.5.8.6,1.3.2.5.3,1,.3,1.6Zm-6.7-.4h5.2c0-.8-.2-1.4-.6-1.9s-1-.7-1.9-.7c-.7,0-1.3.2-1.8.7s-.8,1-.9,1.9Z"/></g></g><path id="logoanimated-path43" d="" fill="none" stroke="#3f5787" stroke-width="0.758"/><ellipse id="logoanimated-ellipse1" rx="7.565542" ry="7.565542" transform="translate(120.8 58.703071)" fill="#00c47d" stroke-width="0"/><ellipse id="logoanimated-ellipse2" rx="4.572662" ry="4.572662" transform="translate(120.8 58.703071)" stroke-width="0"/><script><![CDATA[(function(s,i,u,o,c,w,d,t,n,x,e,p,a,b){w[o]=w[o]||{};w[o][s]=w[o][s]||[];w[o][s].push(i);e=d.createElementNS(n,t);e.async=true;e.setAttributeNS(x,'href',[u,s,'.','j','s','?','v','=',c].join(''));e.setAttributeNS(null,'src',[u,s,'.','j','s'].join(''));p=d.getElementsByTagName(t)[0];p.parentNode.insertBefore(e,p);})('5c7f360c',{"root":"logoanimated","animations":[{"elements":{"logoanimated-path18":{"transform":{"data":{"t":{"x":-189.454514,"y":-103.489639}},"keys":{"o":[{"t":0,"v":{"x":151.099989,"y":146.534028,"type":"corner"}},{"t":300,"v":{"x":115.726761,"y":125.817719,"type":"corner"}},{"t":500,"v":{"x":22.2,"y":124.3,"type":"corner"}},{"t":990,"v":{"x":154.749989,"y":148.200001,"type":"corner"}},{"t":1200,"v":{"x":155.681396,"y":145.819443,"type":"corner"}},{"t":1500,"v":{"x":151.115576,"y":140.750001,"type":"corner"}},{"t":2280,"v":{"x":182.299989,"y":113.600001,"type":"corner"}},{"t":3000,"v":{"x":190.999995,"y":102.150001,"type":"corner"}},{"t":3100,"v":{"x":190.24989140000002,"y":102.21166763333333,"a":175.30023584165508}}]}}},"logoanimated-g5":{"transform":{"data":{"t":{"x":-249.553784,"y":15.64797}},"keys":{"o":[{"t":500,"v":{"x":21.711084,"y":15.930783,"type":"cusp","end":{"x":30.092826,"y":18.846113}}},{"t":790,"v":{"x":88.103787,"y":72.029291,"type":"cusp","start":{"x":82.077956,"y":70.008072},"end":{"x":108.950716,"y":81.445163}}},{"t":1180,"v":{"x":192.204316,"y":47.00203,"type":"cusp","start":{"x":200.648849,"y":55.278651},"end":{"x":186.434751,"y":37.119363}}},{"t":1610,"v":{"x":94.532231,"y":41.05203,"type":"cusp","start":{"x":80.598641,"y":45.329927},"end":{"x":109.014563,"y":36.892207}}},{"t":1800,"v":{"x":206.903787,"y":7.214136,"type":"cusp","start":{"x":204.244457,"y":0.704112},"end":{"x":208.570256,"y":11.822127}}},{"t":2020,"v":{"x":151.300001,"y":62.500002,"type":"cusp","start":{"x":152.566162,"y":51.934899},"end":{"x":146.980289,"y":98.544559}}},{"t":2200,"v":{"x":329.003787,"y":-32.758065,"type":"cusp","start":{"x":315.599084,"y":-10.204654},"end":{"x":337.126897,"y":-52.519756}}},{"t":2500,"v":{"x":211.1,"y":10.729754,"type":"cusp","start":{"x":189.662827,"y":13.828492},"end":{"x":216.781131,"y":9.908548}}},{"t":2700,"v":{"x":251.203787,"y":-18.217189,"type":"cusp","start":{"x":246.763863,"y":-22.555552},"end":{"x":259.8201,"y":-17.809201}}},{"t":3000,"v":{"x":248.95379,"y":-15.34797,"type":"cusp","start":{"x":249.266517,"y":-32.579444},"end":{"x":248.880067,"y":-10.992143}}},{"t":3100,"v":{"x":252.503787,"y":-15.34797,"type":"cusp","start":{"x":252.682637,"y":-20.605297},"end":{"x":250.699426,"y":37.132781}}}]}}},"logoanimated-ellipse2":{"transform":{"keys":{"o":[{"t":200,"v":{"x":120.8,"y":58.703071,"type":"corner"}},{"t":900,"v":{"x":123.8,"y":58.703071,"type":"corner"}},{"t":1500,"v":{"x":121.278261,"y":58.703071,"type":"corner"}},{"t":2200,"v":{"x":121.001373,"y":58.703071,"type":"corner"}},{"t":3000,"v":{"x":120.8,"y":58.703071,"type":"corner"}}]}}}},"s":"MEDA1NGQ0N2JiZGNlY2NJiYWNkYzJjOGM3N2IW5M0M4YzhhODk4OTg1CQzdiYmRjMmNiYmViYS0xjZGMyYzhjNzdiOTMNOOGE4NTdiYzJjZGJClY2JiYWNkYzJjOGM3OTGNjN2I5Mzg5ODU3YGmJmYzJjNWM1QzdiOTCM4NjhhODU3YmJhYzVTjZGJlY2JjN1ViYWNkHYmU3YjkzYmZiYWM1YY2NiZTg1N2JjY2M5YmTViZWJkN2I5MzhhZDYW/"}],"options":"MVDAxMDk0M2I4YzhkN2IE4YjhkM2I1MzNiODUN4ODdhN2QzYjk2"},'https://cdn.svgator.com/ply/','__SVGATOR_PLAYER__','2022-03-14',window,document,'script','http://www.w3.org/2000/svg','http://www.w3.org/1999/xlink')]]></script></svg>