<?xml version="1.0" encoding="utf-8"?>
<!-- Generator: Adobe Illustrator 24.1.1, SVG Export Plug-In . SVG Version: 6.00 Build 0)  -->
<svg version="1.1" id="ehh46vy8odcj1" shape-rendering="geometricPrecision" text-rendering="geometricPrecision"
	 xmlns="http://www.w3.org/2000/svg" xmlns:xlink="http://www.w3.org/1999/xlink" x="0px" y="0px" viewBox="0 0 379 175"
	 style="enable-background:new 0 0 379 175;" xml:space="preserve">
<style type="text/css">
	.st0{fill:#010101;}
	.st1{fill:#00C47D;}
</style>
<g>
	<g>
		<path class="st0" d="M161,111.3c-3.1-2.3-6.5-4.2-9.7-6.4c-2.5-2.2-2.5-7-6.5-7.5c-0.8-3.5-5.7-4.6-8-1.8
			c-0.3-0.1-0.9-0.4-1.2-0.6c-3.9-2.7-7.9-5.1-11.9-7.7c0-0.1,0-0.3,0-0.4c5.2-2.8,9.7-7,12.4-12.2c3.7-6.7,4.3-15,1.6-22.2
			c-2.2-6.1-6.7-11.2-12.2-14.7c1.7-2.1,3.6-4.3,6.3-4.9c2.1-0.7,4.2,0.2,6.4-0.2c2.8-0.3,6-0.6,8.1-2.8c0.8-1,0.4-2.2,0-3.2
			c-5.1-3.4-11.5-2.3-17.1-1.3c2.7-0.6,4.8-3.4,4-6.2c-0.6-3.3-4.9-4.7-7.5-2.8c-1.9,1.2-2.4,3.7-1.9,5.8c-1.4,0.8-2.8,1.6-4.2,2.4
			c-0.4-0.1-1.1-0.4-1.5-0.5c-0.6-1.4-1.3-2.8-1.5-4.3c2.7-1.5,3-5.6,0.9-7.7c-2.2-2.2-6.5-1.6-7.8,1.3c-1.1,1.8-0.4,3.8,0.5,5.5
			c-1,1.1-1.9,2.1-2.7,3.3c-2.4,0.8-3.7-1.7-4.9-3.2c0.8-2,1.4-4.6-0.2-6.5c-2.2-2.9-7.4-2.1-8.4,1.4c-1.1,2.4,0.6,4.6,2.2,6.3
			c-0.9,1.5-0.9,3.7-2.8,4.3c-1.6-0.7-3-1.6-4.5-2.4c1-3.3-1.5-7.2-5.1-6.6c-4.5,0-6,6.5-2.4,8.9c0.7,0.3,1.3,0.5,1.9,0.8
			c-3.7-0.6-7.4-1.5-11.1-0.7c-2.7,0.3-6.8,1.4-5.9,5c3.4,3.4,8.7,3.4,13.1,3c3.5,0.2,6.1,2.6,8.1,5.3c-2.6,1.8-5.1,3.8-7.1,6.3
			C77,40.7,73.6,37,69.1,35c-2.5-0.8-5.4-1.3-7.7,0.2c-3.2,1.9-4.4,5.6-4.7,9.1c-0.8-2-0.4-4.3-1.3-6.2c-1-2.5-3.1-4.4-5.6-5.3
			c-6.4-2.5-13.9-0.5-18.9,4c-4.1,3.6-7.7,8.2-8.7,13.7c-1.3,6.4,0.5,13.1,4,18.5c0.6,1.1,1.5,2.1,1.6,3.3
			c1.4,7.5,4.2,14.7,7.5,21.6c2.2,4.3,4.4,8.6,7.3,12.5c3.7,5.1,9.7,8.5,16.1,8.9c-5.2,2.5-9,7.3-10.4,12.8c-2.4,1.8-4.9,4-5.6,7
			c-0.6,2.3,1.4,5.3,4,4.1c0.3,3.3-2.4,5.7-2.9,8.8c0.2,0.9,0.8,1.7,1.2,2.5c-0.2,1.7-0.6,3.9,0.9,5.1c6.7,6.2,16.1,9.1,25.2,8.5
			c2.5-0.1,3.2-2.7,4.5-4.3c10.3,0.4,21,0.3,30.5-4.2c7.3-3.2,13.1-9.6,15.5-17.3c2.8-8.5,1.8-17.6,0.2-26.2c1.3,1.8,2.3,4.1,4.5,5
			c1.8,0.9,3.9,0.4,5.7-0.3c1.7,0.4,3.3,2,5.2,1.2c2.4-1.1,4.1-3.2,6.2-4.8c0.9-0.3,1.9-0.1,2.7-0.6c0.7-0.2,1.2-1.4,2-0.9
			c2.9,1.6,5.5,3.7,8.5,5.3c1.7,0.5,4.1,0.2,4.8-1.8C162,114,161.4,112.6,161,111.3z M139.3,96.5c0.8-0.2,1.6-0.1,2.5,0
			c1.4,2.3,0.2,5.6-2,6.9c-0.4-0.2-1.3-0.6-1.7-0.9C137.8,100.5,138.1,98.2,139.3,96.5z M96.2,16.3l-0.1,0.2c-0.2-2.2,1.9-4.4,4-3
			l0.3-0.1c0.5,1,1.3,2.1,0.7,3.2c-0.7,1-1.8,1.5-2.7,2.2C98,17.6,96.5,17.5,96.2,16.3z M84.4,23c-2.1,0-3.1-2.1-2.7-3.9
			c0.8-0.7,1.6-1.6,2.9-1.5c1,0.4,1.7,1.2,2.4,1.9c-0.3,1.2-0.6,2.4-0.9,3.6c2.8,1.5,5.5,4.5,8.9,3.3c2.7-1.3,3-4.7,4-7.1l0.9,1.2
			c0-0.3,0-0.8,0-1.1c2.3,2.1,3.9,6.2,7.7,5.2c2.6-1,4.3-3.8,5.7-6.1c-1.3-1.2-2.4-3.3-0.8-4.8c1.7-1.9,4.8,0.1,4.4,2.4
			c-0.4,1.3-1.6,1.9-2.7,2.5c0,0.6,0,1.3-0.1,1.9c1.5,1.8,1.3,4.9,3.8,5.9c2.1,1,4.2-0.5,6-1.3l0.2-0.3c0.8-0.5,1.7-1,2.5-1.4
			c0-0.4-0.1-1.2-0.1-1.5c-0.2-1-0.1-2.1,0-3.1c0.6-0.4,1.3-0.9,2-1.2c1.3,0.1,2.3,1,2.9,2.1c-0.3,1-0.1,2.3-1.3,2.7
			c-2.3,0.9-3,3.4-4.4,5.3l-0.3,0.2c-0.9,2.6-2.8,4.8-4,7.3c-1.7-0.2-3.2-0.9-4.9-1.4c-6.5-1.8-13.5-1.6-20,0
			c-1.5,0.6-3,1.1-4.5,1.8C89.3,31.4,87,27.1,84.4,23z M88.7,39.7c1.3,0.6,1.8,2.2,2.9,3.1C92.3,43,93,43,93.7,43
			c1.2-1,0.7-2.5,0.3-3.8c-0.7,0.4-0.9-1.2-1.4-1.6c7.4-3.3,16-3.9,23.7-1.6c1.4,0.3,2.7,0.9,4,1.4c-0.8,1.8-2.6,3.7-1,5.6
			c2.3,0.3,3.4-1.9,4.6-3.3c4.3,1.9,7.5,5.8,10,9.7c-2.2,1.1-4.8,2-7.2,1.1c1.8-1.3,3.7-2.5,4.7-4.5c-1.8,1.5-3.8,3.1-6.2,3.4
			c-2.6-0.5-5.4-0.5-7.7,0.7c-2.3,1.1-3.8,3.2-4.9,5.4c-1,3.1-0.7,6.6,1.4,9.1c1.1,1.6,2.9,2.2,4.5,3.2c3.6,0.6,7.5-0.3,9.9-3.2
			c2.9-2.5,3.1-6.5,2.5-10c1.3,0,2.7,0.1,3.9-0.6c-2-0.1-4.1-0.2-5.7-1.7c1.8-0.6,3.5-1.4,5.1-2.3c2.4,3.5,3.2,7.8,3.2,12
			c0,8.3-4.7,16.1-11.5,20.8c-8.2,5.8-19.1,7.6-28.7,4.5c-11.8-3-21.6-14.1-21.1-26.6c0.1-0.1,0.2-0.4,0.3-0.5
			C76.3,51.8,81.9,44.4,88.7,39.7z M118.2,66.3c-4.3-1.6-6-7.1-4-11c1.3-2.2,3.6-3.8,6.1-4c4.1-0.4,8.1,2.9,8.4,7
			C129.5,63.7,123.3,68.6,118.2,66.3z M81.1,114.4c-0.5,1.3-1.5,2.2-2.4,3.3c-0.9-0.6-2.2-1-1.9-2.3c-0.8,0.2-1.7,0.4-2.5,0.5
			c-0.7,1.8-1.4,3.6-1.4,5.5c-2.5,0.6-3.9-1.9-4.8-3.8l-0.5,0c-0.1,0.4-0.3,1.1-0.4,1.4c-0.2-0.2-0.5-0.4-0.7-0.6
			c-0.7-1.4-1.2-2.8-2-4.1c-0.3,0.2-0.8,0.7-1,0.9c-0.2-0.6-0.4-1.3-0.5-1.9c1.2-5,6.8-6.4,11.2-7.2c-0.4-0.7-1-1.1-1.7-1.3
			c1.8-1.9,3.1-4.2,4.7-6.2c0.6-1,1.9-0.3,2.8-0.2c2,0.5,3.7,1.6,5.3,2.8c1.3,1.5,4.2,4.2,1.6,5.8c-1.9,1.2-3.3,4-5.8,3.3
			C81.2,111.7,81.4,113.1,81.1,114.4z M77.8,120.1c-0.2,1-0.3,2-0.5,2.9c-0.4-0.1-1.2-0.2-1.5-0.3c-0.4-1.4-0.2-2.8,0.1-4.2
			C76.6,119,77.2,119.5,77.8,120.1z M82.9,96.8c-0.4-0.1-1.1-0.4-1.5-0.5c2.4-2.9,5-5.9,8.3-7.7c0.7-0.5,1.6-0.6,2.4-0.7
			C88.2,89.8,85.3,93.2,82.9,96.8z M51.7,61.8c2.4-1.7,3.8-4.4,4-7.3c-0.1-0.6-0.4-1.9-0.5-2.5c0.5,0.3,1.5,1,2,1.3
			c1.2,6.6,3.3,13,5.9,19.1c-1.9-0.9-3.4-2.5-5.2-3.7c-2.6-2-5.4-3.5-8.1-5.3C50.1,62.6,51.2,62.4,51.7,61.8z M47.2,62
			c-1.5-0.6-3.1-1.2-4.5-2.2c2.6-0.6,5.1-1.5,7.2-3.2c1.1-1.2,2.2-2.5,2.9-4.1c0.9,1.4,0.6,3.3-0.1,4.8C51.6,59.5,49.2,60.6,47.2,62
			z M60.1,55c4.4,3.1,9.3,5.7,13.6,9c0.9,9.2,6.6,17.4,14.4,22.2c0,0.2,0,0.5,0,0.6c-1.7,1.2-3.3,2.4-4.7,3.9
			c-0.3,0.4-1,1.1-1.5,0.4c-4.1-4.7-8.3-9.2-12.9-13.4c-0.9-0.8-1.9-1.7-2.3-2.9C64,68.4,61.2,61.9,60.1,55z M59.9,40.4
			c1.1-3,4.5-4.7,7.6-3.5c4.3,1.7,7.7,5.1,10.7,8.5c1,1.1-0.5,2.3-1,3.3c-1.1,2.3-2.1,4.5-2.7,7c-4.1-2.6-8.1-5.2-12.1-7.8
			c-0.8-0.7-2.3-0.6-2.6-1.8L59,45.8C59.1,44,59,42.1,59.9,40.4z M73.1,57.5c1.4,0.6,0.6,2.3,0.7,3.5c-6.9-4.3-13.7-8.7-20.6-13.2
			c0.5-0.7,1-1.4,1.6-2.1C60.9,49.7,67,53.5,73.1,57.5z M33.1,37.9c5.1-4.1,13.2-5.7,18.5-1.3c1.9,1.7,2.4,4.4,2.2,6.9
			c-1.2,0.9-2.5,2-2.6,3.7l-0.3,0c-1.8,1.6-4.8,1-6.8,0c-3-1.4-3.8-5.5-7.1-6.5c-2.1-0.8-4.3-0.5-6.4-0.1
			C31.1,39.4,32.2,38.7,33.1,37.9z M28.9,60.5c-1.2,1.6-1.4,3.6-1.8,5.5c-3.7-6.8-4.3-15.7,0.6-22.1c2.5-1.2,5.3-1.8,8.1-1.3
			c2.5,0.7,3.4,3.4,5.1,5.2c1.4,0.9,2.8,1.9,4.5,2.4c1.9,0.4,3.8,0.1,5.7,0c-0.4,1.3-0.9,2.6-1.7,3.7c-3.8,3.6-9.3,4.4-14.3,4.1
			C32.7,57.7,30.2,58.5,28.9,60.5z M58,113l-0.2-0.1c-5.8-0.5-11.1-4.2-14.2-9.1c-1.7-2.7-3.6-5.3-4.7-8.3c-0.1-0.1-0.4-0.4-0.6-0.5
			c-4.2-9.5-9-19.3-8.8-30l0,0c0.4-1.8,1-3.8,2.9-4.5c3.6-0.8,7.1,0.8,10.4,2.1C57.8,69.3,69.8,81,80.6,93c-0.4,1-0.8,2.2-1.9,2.8
			c-0.7,0-1.5,0-2.2,0.1c-2.4,2.9-4.4,6.1-6.8,9c-3,0.8-6.1,2-7.9,4.7c-0.8,1-0.7,2.5-1.7,3.4C59.4,113,58.7,113,58,113z
			 M61.5,116.7c2,2,3.8,4.8,6.7,5.4c1.1,1.3,2.7,2,4.4,2.1c-0.3,2-0.5,3.9-0.5,5.9c-6.7-2.6-13.8-4.2-21-3.4
			C53,122.1,56.8,118.3,61.5,116.7z M71.7,161.8c-4.1,0.4-8.2,0.2-12.1-1.1c-4.5-1.1-8.7-3.7-12.2-6.7c0-0.8-0.1-1.6-0.1-2.5
			c4.2-0.4,5.6-4.9,6.7-8.3c0.8-2,2.7-4.6,5.2-3.7c4.2,1.7,8.5,3.1,13,3.9c2.4,0.6,5,0.6,7.4,0.6c0.4-0.1,1.2-0.2,1.6-0.3
			C77.9,149.7,75,155.9,71.7,161.8z M76.7,157.5c0.4-1,0.9-1.9,1.3-2.9c1.2,1,2.4,2.1,3.5,3.2C79.9,157.8,78.3,157.7,76.7,157.5z
			 M77.4,141.7c-6.2-0.3-12.2-2.3-17.9-4.6c-1.8-0.7-3.7,0.2-5.2,1.3c-3,2.5-2.7,7.1-5.4,9.9c-0.7,0.9-2.1,0.8-2.7-0.1
			c0.6-3.9,4.4-6,6.4-9.1c1.4-1.9,2.8-5,0.6-6.8c-1.3-0.1-2.9-0.5-4,0.5c-1.7,1.2-2.5,3.3-4.2,4.4c-0.5-3.7,3.3-6.2,6.1-7.9
			c9.6-1.2,19.3,1.9,27.6,6.7c1.8,1.1,3.9,2.6,4.4,4.8C81.3,141.5,79.3,141.9,77.4,141.7z M49,139.7c0.1-1.4,0.3-2.7,0.5-4
			c0.7-0.6,1.4-1.5,2.4-1.4C52.2,136.5,50.3,138.2,49,139.7z M84,137.2c-2.5-2.2-5.3-4.1-8.3-5.4v-0.1c-0.8-0.2-1.1-0.7-1.1-1.4
			c-0.1-1.7,0-3.3,0.1-5c0.4,0.3,0.9,0.5,1.3,0.8c0.9-0.2,1.7-0.4,2.6-0.6c0.6-0.5,1.1-1,1.5-1.6c-1.1-1.5,1.8-1.3,0.9,0.1l0.5,0
			C84,127.8,84.7,132.6,84,137.2z M93.4,156.8c5.7-1.3,11.1-4.2,15.3-8.2c1.4-0.1,2.8-0.2,4.2-0.3
			C107.6,153.3,100.5,156.1,93.4,156.8z M117.7,141.6c-0.6,1.2-1.2,2.5-2.3,3.3c-4.3,1.5-9.1,1.9-13.6,1.2c-1.6-0.2-3.2-0.5-4.7-1
			c-4.1-0.8-7.9-2.8-11.6-4.6c1.4-4.9,1.4-10.2-0.4-15c3.1,1.9,6.4,3.7,9.9,4.7c0.8-1.1,1.6,0.2,2.2,0.8c1.7,0.4,3.3,0.8,5,1.2
			c5.2,0.5,10.4,0.5,15.5-1l0-0.1c1.1-0.3,2.1-0.6,3.2-1C120.7,134.2,119.4,138,117.7,141.6z M117.9,128.8c0.9-4.8,0.8-9.7,0.8-14.6
			c0.2,0.1,0.6,0.1,0.8,0.2c1.4,4.1,1.4,8.5,1.7,12.8C120.2,127.8,119.1,128.3,117.9,128.8z M122,108.6c-1.3,2.8-4.4,4-7.2,4.6
			c-8.5,1.9-17.8-0.5-24.3-6.3c0.3-1.3,0-2.6-0.7-3.8c-1.2-1.9,1.5-3.3,2.6-4.4c0-0.1-0.1-0.2-0.1-0.3l0.2-0.1
			c1.6-2.8,2.8-6.2,1.2-9.3c5.3,1.3,10.8,2.6,16.4,1.8c1.7-0.1,3.4-0.5,5.2-0.3c2.2,1.4,4.3,2.9,6.6,4.2
			C123.4,99.1,124.1,104.3,122,108.6z M117.8,89.3c1.4-0.2,2.9-1.3,4.2-0.4c4.7,3,9.4,6,14.1,9c-0.1,0.9-0.2,1.8-0.3,2.7
			c-1.1-0.3-2.1-0.8-3-1.5C127.8,95.8,122.7,92.7,117.8,89.3z M126.2,97.7c2.4,1.6,4.9,3.1,7.3,4.7c-0.3,0.6-0.7,1.2-1,1.7
			c-0.7,0.2-1.4,0.6-2.1,0.7C128.8,102.5,127.6,100,126.2,97.7z M136.4,115.9c-1.9-0.2-3.3-1.4-4.6-2.6c-1.1-2-2.8-5.6,0.3-6.7
			c0.3,2,1.6,3.6,3.2,4.7c1.8,0.7,3.6,1.3,5.5,0.7C139.4,113.4,137.9,114.6,136.4,115.9z M140.4,109.9c-2.5,0.1-6-1.3-5.8-4.3
			c0.3-0.5,0.2-2,1.1-1.6c1.3,1,2.9,1.6,4.6,1.6c1.1,0.5,2.3,1.4,2.2,2.8C141.9,108.9,141.1,109.4,140.4,109.9z M144.1,105.1
			c-0.3-0.2-1-0.6-1.3-0.9c0.7-1.4,1.3-2.8,1.8-4.3c0.8,0.1,1.6,0.4,1.9,1.3C146.8,103,145.1,104,144.1,105.1z M144.6,107.7
			c1.2-1.1,2.4-2.2,3.7-3.2C148.6,106.5,146.7,109,144.6,107.7z M157.7,115.1c-3-1.7-5.7-3.9-8.8-5.5c0.5-0.9,0.9-1.7,1.4-2.6
			c2.9,1.6,5.7,3.5,8.5,5.4c0.8,0.4,0.6,1.4,0.7,2.1C158.9,114.6,158.1,114.9,157.7,115.1z"/>
		<path class="st1" d="M128.8,58.3c-0.3-4.1-4.3-7.4-8.4-7c-2.5,0.2-4.9,1.8-6.1,4c-2.1,3.9-0.4,9.4,4,11
			C123.3,68.6,129.5,63.7,128.8,58.3z M122.3,64c-3.6,1.2-7.2-3-5.7-6.4c0.8-2.4,3.5-3.2,5.8-3c-0.5,0.9-1.5,1.9-0.8,3.1
			c-0.4,1.2-2.6,0.9-2.1,2.7c0.8,0.4,2.6,0.6,2.2-0.9c0.8-0.4,1.6-0.8,2.5-0.7c0.5-0.4,1.1-0.7,1.6-1.1
			C126.4,60.3,125.2,63.4,122.3,64z"/>
		<path class="st1" d="M101.2,16.6c-0.7,1-1.8,1.5-2.7,2.2c-0.4-1.1-2-1.3-2.3-2.5l-0.1,0.2c-0.2-2.2,1.9-4.4,4-3l0.3-0.1
			C100.9,14.4,101.8,15.4,101.2,16.6z"/>
		<path class="st1" d="M131.3,19.7c-0.3,1-0.1,2.3-1.3,2.7c-2.3,0.9-3,3.4-4.4,5.3l-0.3,0.2c-0.9,2.6-2.8,4.8-4,7.3
			c-1.7-0.2-3.2-0.9-4.9-1.4c-6.5-1.8-13.5-1.6-20,0c-1.5,0.6-3,1.1-4.5,1.8c-2.7-4.1-5-8.4-7.6-12.5c-2.1,0-3.1-2.1-2.7-3.9
			c0.8-0.7,1.6-1.6,2.9-1.5c1,0.4,1.7,1.2,2.4,1.9c-0.3,1.2-0.6,2.4-0.9,3.6c2.8,1.5,5.5,4.5,8.9,3.3c2.7-1.3,3-4.7,4-7.1l0.9,1.2
			c0-0.3,0-0.8,0-1.1c2.3,2.1,3.9,6.2,7.7,5.2c2.6-1,4.3-3.8,5.7-6.1c-1.3-1.2-2.4-3.3-0.8-4.8c1.7-1.9,4.8,0.1,4.4,2.4
			c-0.4,1.3-1.6,1.9-2.7,2.5c0,0.6,0,1.3-0.1,1.9c1.5,1.8,1.3,4.9,3.8,5.9c2.1,1,4.2-0.5,6-1.3l0.2-0.3c0.8-0.5,1.7-1,2.5-1.4
			c0-0.4-0.1-1.2-0.1-1.5c-0.2-1-0.1-2.1,0-3.1c0.6-0.4,1.3-0.9,2-1.2C129.7,17.7,130.7,18.6,131.3,19.7z"/>
		<path class="st1" d="M88.1,86.1c0,0.2,0,0.5,0,0.6c-1.7,1.2-3.3,2.4-4.7,3.9c-0.3,0.4-1,1.1-1.5,0.4c-4.1-4.7-8.3-9.2-12.9-13.4
			c-0.9-0.8-1.9-1.7-2.3-2.9C64,68.4,61.2,61.9,60.1,55c4.4,3.1,9.3,5.7,13.6,9C74.6,73.1,80.4,81.3,88.1,86.1z"/>
		<path class="st1" d="M77.2,48.6c-1.1,2.3-2.1,4.5-2.7,7c-4.1-2.6-8.1-5.2-12.1-7.8c-0.8-0.7-2.3-0.6-2.6-1.8L59,45.8
			c0.1-1.8,0.1-3.7,0.9-5.4c1.1-3,4.5-4.7,7.6-3.5c4.3,1.7,7.7,5.1,10.7,8.5C79.2,46.5,77.6,47.7,77.2,48.6z"/>
		<path class="st1" d="M81.2,143.8c-3.2,5.9-6.2,12.1-9.5,18c-4.1,0.4-8.2,0.2-12.1-1.1c-4.5-1.1-8.7-3.7-12.2-6.7
			c0-0.8-0.1-1.6-0.1-2.5c4.2-0.4,5.6-4.9,6.7-8.3c0.8-2,2.7-4.6,5.2-3.7c4.2,1.7,8.5,3.1,13,3.9c2.4,0.6,5,0.6,7.4,0.6
			C80,144,80.8,143.9,81.2,143.8z"/>
		<path class="st1" d="M120.8,130.2c-0.2,4-1.4,7.9-3.1,11.5c-0.6,1.2-1.2,2.5-2.3,3.3c-4.3,1.5-9.1,1.9-13.6,1.2
			c-1.6-0.2-3.2-0.5-4.7-1c-4.1-0.8-7.9-2.8-11.6-4.6c1.4-4.9,1.4-10.2-0.4-15c3.1,1.9,6.4,3.7,9.9,4.7c0.8-1.1,1.6,0.2,2.2,0.8
			c1.7,0.4,3.3,0.8,5,1.2c5.2,0.5,10.4,0.5,15.5-1l0-0.1C118.7,130.9,119.8,130.5,120.8,130.2z"/>
		<path class="st1" d="M122,108.6c-1.3,2.8-4.4,4-7.2,4.6c-8.5,1.9-17.8-0.5-24.3-6.3c0.3-1.3,0-2.6-0.7-3.8
			c-1.2-1.9,1.5-3.3,2.6-4.4c0-0.1-0.1-0.2-0.1-0.3l0.2-0.1c1.6-2.8,2.8-6.2,1.2-9.3c5.3,1.3,10.8,2.6,16.4,1.8
			c1.7-0.1,3.4-0.5,5.2-0.3c2.2,1.4,4.3,2.9,6.6,4.2C123.4,99.1,124.1,104.3,122,108.6z"/>
		<path class="st1" d="M80.6,93c-0.4,1-0.8,2.2-1.9,2.8c-0.7,0-1.5,0-2.2,0.1c-2.4,2.9-4.4,6.1-6.8,9c-3,0.8-6.1,2-7.9,4.7
			c-0.8,1-0.7,2.5-1.7,3.4c-0.7,0.1-1.4,0.1-2.1,0.1l-0.2-0.1c-5.8-0.5-11.1-4.2-14.2-9.1c-1.7-2.7-3.6-5.3-4.7-8.3
			c-0.1-0.1-0.4-0.4-0.6-0.5c-4.2-9.5-9-19.3-8.8-30l0,0c0.4-1.8,1-3.8,2.9-4.5c3.6-0.8,7.1,0.8,10.4,2.1C57.8,69.3,69.8,81,80.6,93
			z"/>
	</g>
	<path class="st0" d="M29,47.1c2-1.8,5-2.2,7.5-1.5c-0.9,1.3-2.8,0.8-3.9,1.8C29,49.2,28.1,53.5,27,57c-0.8-0.5-0.7-1.6-1-2.4
		c0-0.5,0-1,0-1.5C26.5,50.9,27.2,48.5,29,47.1z"/>
	<path class="st0" d="M122.3,64c-3.6,1.2-7.2-3-5.7-6.4c0.8-2.4,3.5-3.2,5.8-3c-0.5,0.9-1.5,1.9-0.8,3.1c-0.4,1.2-2.6,0.9-2.1,2.7
		c0.8,0.4,2.6,0.6,2.2-0.9c0.8-0.4,1.6-0.8,2.5-0.7c0.5-0.4,1.1-0.7,1.6-1.1C126.4,60.3,125.2,63.4,122.3,64z"/>
	<path class="st0" d="M84.6,56.3c1.5,0.3,1.7,2.2,3.1,2.8c3.2-1.4,7.1-2,10.2,0c1.2,0.9,2.6,1.9,3.1,3.4c-2.8-1.5-6.1-3.3-9.3-2.1
		c-2.5,0.5-4.4,2.8-7.1,2.8c-2,0.2-4.3-0.8-5.1-2.8c0.8,0.1,1.6,0.2,2.3,0.4c0.3,0.2,1,0.6,1.4,0.8c-0.2-0.9-0.5-1.8-1-2.6
		c-0.1,0.1-0.4,0.3-0.5,0.4l-0.1,0.1c0.1-0.8,0.2-1.6,0.4-2.5c1.3,1.2,2,2.9,3.8,3.5C85.3,59.1,84.9,57.7,84.6,56.3z"/>
	<path class="st0" d="M102.8,65.8c2.2-1.2,5.2-1.5,7.1,0.4c1.1,1,0.5,2.7-0.7,3.4c-2,1.1-4.9,1.1-6.6-0.6
		C101.8,68,102.4,66.7,102.8,65.8z"/>
	<path class="st0" d="M89.4,72.9c2.2-0.1,4.4-0.6,6.4-1.8c0.2,1-0.3,1.9-1,2.6c4.2,4.8,11.1,7,17.4,5.7c2-0.4,3.8-1.3,5.8-1.3
		c-1.6,1.9-4.2,2.5-6.5,3.1c-6.7,1.5-14.1-1.2-18.4-6.7C91.7,74.4,89.9,74.6,89.4,72.9z"/>
	<path class="st0" d="M139.5,80.6c0.1-0.3,0.4-0.8,0.5-1.1c0.2,1.3,0.5,2.5,0.8,3.8c0.9,0.3,1.8,0.6,2.7,1c-0.9,0.3-1.7,0.5-2.6,0.8
		c-0.4,1.3-0.7,2.5-1.1,3.8c-0.3-1.2-0.4-2.5-1-3.6c-0.7-0.7-1.8-0.6-2.6-1c0.8-0.4,1.7-0.7,2.6-0.9
		C139.1,82.5,139.3,81.6,139.5,80.6z"/>
	<path class="st0" d="M120.7,124.3c1.1-2.3,1-5,2.2-7.2c0.3,1.2,0.4,2.5,1.1,3.6c0.7,1-0.7,2.4,0.5,3.2c1.5,1,3.4,1.2,5.1,1.9
		c-1.7,0.6-3.4,0.9-5,1.8c-1.1,2-1,4.4-1.7,6.5c-1.2-1.4-1-3.4-1.7-5.1c-0.4-2.5-3.7-2.1-5.4-3.3
		C117.5,125.1,119.2,124.9,120.7,124.3z"/>
	<path class="st0" d="M45,117c0.4-1.2,0.7-2.4,1.1-3.6c0.3,1.2,0.6,2.3,0.9,3.5c0.9,0.3,1.7,0.6,2.6,0.9c-0.9,0.3-1.8,0.6-2.7,0.9
		c-0.2,1.1-0.4,2.1-0.7,3.2c-0.7-0.8-0.6-1.9-0.9-2.8c-0.6-0.8-1.8-0.9-2.6-1.2C43.4,117.5,44.2,117.2,45,117z"/>
	<path class="st0" d="M117.7,151.8c1.8-0.2,2.1-2.1,2.5-3.6c0.1,1.6,0.3,3.3,2.1,3.8c-1.9-0.2-1.9,1.7-2.2,3
		C119.7,153.7,119.3,152.2,117.7,151.8z"/>
</g>
<g>
	<g>
		<path class="st1" d="M194.8,97.6c-0.3-0.3-0.4-0.6-0.4-1v-0.7c0-1.1-0.5-1.9-1.4-2.3s-1.9-0.6-3.1-0.6s-2.2,0.2-3.1,0.6
			s-1.4,1.2-1.4,2.3v12.6c0,1.1,0.5,1.9,1.4,2.3s1.9,0.6,3.1,0.6s2.2-0.2,3.1-0.6s1.4-1.2,1.4-2.3v-0.7c0-0.4,0.1-0.7,0.4-1
			c0.3-0.3,0.6-0.4,1-0.4h7.4c0.4,0,0.7,0.1,1,0.4c0.3,0.3,0.4,0.6,0.4,1v3c0,2.2-0.4,4-1.3,5.5c-0.9,1.4-2,2.5-3.4,3.4
			s-3,1.4-4.8,1.7c-1.8,0.3-3.6,0.5-5.5,0.5c-1.9,0-3.7-0.2-5.5-0.5c-1.8-0.3-3.3-0.9-4.7-1.7c-1.4-0.8-2.5-1.9-3.3-3.4
			c-0.8-1.4-1.3-3.3-1.3-5.5V93.6c0-2.2,0.4-4.1,1.3-5.5c0.8-1.4,2-2.6,3.3-3.4c1.4-0.8,3-1.4,4.7-1.7c1.8-0.3,3.6-0.5,5.5-0.5
			c1.8,0,3.7,0.2,5.5,0.5c1.8,0.3,3.4,0.9,4.8,1.7s2.5,2,3.4,3.4c0.9,1.4,1.3,3.2,1.3,5.5v3c0,0.4-0.1,0.7-0.4,1
			c-0.3,0.3-0.6,0.4-1,0.4h-7.4C195.5,98.1,195.1,97.9,194.8,97.6z"/>
		<path class="st1" d="M240,121.4c-0.3,0.3-0.6,0.4-1,0.4h-7.4c-0.4,0-0.7-0.1-1-0.4c-0.3-0.3-0.4-0.6-0.4-1v-9.7h-8.9v9.7
			c0,0.4-0.1,0.7-0.4,1c-0.3,0.3-0.6,0.4-1,0.4h-7.4c-0.4,0-0.7-0.1-1-0.4c-0.3-0.3-0.4-0.6-0.4-1V94.7c0-2.1,0.4-3.9,1.3-5.5
			c0.8-1.6,2-2.8,3.3-3.8c1.4-1,3-1.7,4.8-2.2c1.8-0.5,3.6-0.7,5.5-0.7s3.7,0.2,5.5,0.7c1.8,0.5,3.4,1.2,4.8,2.2
			c1.4,1,2.5,2.3,3.3,3.8c0.8,1.6,1.3,3.4,1.3,5.5v25.6C240.4,120.7,240.3,121.1,240,121.4z M230,100.3v-5.2c0-0.7-0.5-1.2-1.5-1.6
			s-2-0.6-3-0.6s-2,0.2-3,0.6s-1.5,0.9-1.5,1.6v5.2H230z"/>
		<path class="st1" d="M256.8,120.3c0,0.4-0.1,0.7-0.4,1c-0.3,0.3-0.6,0.4-1,0.4h-7.4c-0.4,0-0.7-0.1-1-0.4c-0.3-0.3-0.4-0.6-0.4-1
			V83.9c0-0.4,0.1-0.7,0.4-1c0.3-0.3,0.6-0.4,1-0.4h16.9c2.2,0,4.2,0.4,5.9,1.1c1.7,0.7,3.1,1.7,4.2,2.9s2,2.5,2.5,4
			c0.6,1.5,0.9,3.1,0.9,4.6c0,2.8-0.9,5.1-2.6,7.1c-1.7,1.9-4.3,3.2-7.7,3.8l11.7,15.9h-11.3c-0.5,0-0.9-0.2-1.2-0.5
			c-0.3-0.3-0.5-0.7-0.8-1l-9.8-13.4V120.3z M267,96.6c0.6-0.5,0.9-1,0.9-1.5c0-0.5-0.3-1.1-0.9-1.5c-0.6-0.5-1.5-0.7-2.7-0.7h-7.5
			v4.5h7.5C265.5,97.3,266.4,97.1,267,96.6z"/>
		<path class="st1" d="M306,83.3c1.8,0.6,3.4,1.4,4.8,2.5s2.5,2.5,3.4,4.2c0.8,1.7,1.3,3.6,1.3,5.8v12.7c0,2.2-0.4,4.2-1.3,5.8
			c-0.8,1.7-2,3-3.4,4.2s-3,1.9-4.8,2.5c-1.8,0.5-3.6,0.8-5.4,0.8h-14.9c-0.4,0-0.7-0.1-1-0.4c-0.3-0.3-0.4-0.6-0.4-1V83.9
			c0-0.4,0.1-0.7,0.4-1c0.3-0.3,0.6-0.4,1-0.4h14.9C302.4,82.5,304.2,82.7,306,83.3z M303.7,94.4c-0.9-1-1.9-1.6-3.1-1.6h-5.9v18.6
			h5.9c1.1,0,2.2-0.5,3.1-1.5c0.9-1,1.4-2.6,1.4-4.6v-6.2C305.1,97,304.6,95.5,303.7,94.4z"/>
		<path class="st1" d="M329.5,112.5c1.5,0.3,2.8,0.5,4,0.5c1.3,0,2.3-0.2,3.1-0.6c0.8-0.4,1.2-1,1.2-1.7c0-1-0.4-1.8-1.3-2.5
			c-0.8-0.7-1.9-1.3-3.2-1.9s-2.6-1.3-4.1-1.9c-1.5-0.7-2.9-1.5-4.1-2.5s-2.3-2.2-3.2-3.6s-1.3-3.1-1.3-5.2c0-1.7,0.4-3.3,1.1-4.6
			c0.7-1.3,1.7-2.5,3-3.3s2.7-1.6,4.5-2c1.7-0.4,3.5-0.7,5.5-0.7c2,0,4.1,0.2,6.2,0.7c2.1,0.5,4.2,1.2,6.2,2.2l-3,8.2
			c-1.7-0.8-3.3-1.4-4.8-1.8c-1.5-0.3-2.8-0.5-4-0.5c-1.3,0-2.4,0.2-3.2,0.6s-1.2,1-1.2,1.7c0,1,0.4,1.8,1.3,2.5
			c0.8,0.7,1.9,1.3,3.2,1.9s2.6,1.3,4.1,1.9c1.5,0.7,2.9,1.5,4.1,2.5c1.3,1,2.3,2.2,3.2,3.6s1.3,3.1,1.3,5.2c0,1.7-0.4,3.3-1.1,4.6
			c-0.7,1.3-1.7,2.5-3,3.3c-1.3,0.9-2.7,1.6-4.5,2c-1.7,0.4-3.5,0.7-5.5,0.7c-2,0-4.1-0.2-6.2-0.7c-2.1-0.5-4.2-1.2-6.2-2.2l3-8.2
			C326.4,111.5,328,112.1,329.5,112.5z"/>
	</g>
	<g>
		<g>
			<path d="M177,76.3c-0.4,0-0.8-0.1-1.1-0.4c-0.3-0.3-0.5-0.6-0.5-1V38.4c0-0.4,0.2-0.7,0.5-1c0.3-0.3,0.7-0.4,1.1-0.4h29.5v10.4
				h-19.7v4.5h19.7v9.7h-19.7v4.5h19.7v10.4H177z"/>
			<path d="M224.1,37.3c0.3,0.3,0.5,0.6,0.5,1v36.4c0,0.4-0.2,0.7-0.5,1c-0.3,0.3-0.7,0.4-1.1,0.4h-8.2c-0.4,0-0.8-0.1-1.1-0.4
				c-0.3-0.3-0.5-0.6-0.5-1V38.4c0-0.4,0.2-0.7,0.5-1c0.3-0.3,0.7-0.4,1.1-0.4h8.2C223.4,36.9,223.7,37,224.1,37.3z"/>
			<path d="M255.1,37.7c2,0.6,3.7,1.4,5.3,2.5c1.6,1.1,2.8,2.5,3.7,4.2c0.9,1.7,1.4,3.6,1.4,5.8V63c0,2.2-0.5,4.2-1.4,5.8
				c-0.9,1.7-2.2,3-3.7,4.2c-1.6,1.1-3.3,1.9-5.3,2.5c-2,0.5-4,0.8-6,0.8h-16.4c-0.4,0-0.8-0.1-1.1-0.4c-0.3-0.3-0.5-0.6-0.5-1V38.4
				c0-0.4,0.2-0.7,0.5-1c0.3-0.3,0.7-0.4,1.1-0.4h16.4C251.2,36.9,253.2,37.2,255.1,37.7z M252.5,48.9c-1-1-2.1-1.6-3.4-1.6h-6.6
				v18.6h6.6c1.3,0,2.4-0.5,3.4-1.5s1.5-2.6,1.5-4.6v-6.2C254.1,51.5,253.6,49.9,252.5,48.9z"/>
		</g>
		<circle class="st1" cx="218.6" cy="25.5" r="7"/>
	</g>
	<g>
		<path d="M186.2,143.9c0.3,0,0.5,0,0.6-0.1v1.1c-0.3,0.1-0.7,0.2-1.1,0.2c-1.1,0-1.7-0.5-1.8-1.4c-0.8,1-1.9,1.4-3.2,1.4
			c-0.9,0-1.6-0.2-2.1-0.7s-0.8-1.1-0.8-1.8c0-0.9,0.4-1.6,1.1-2.1c0.7-0.5,1.7-0.7,2.9-0.7c0.7,0,1.4,0.1,2.1,0.2v-0.7
			c0-0.5-0.2-0.9-0.6-1.3c-0.4-0.3-1-0.5-1.8-0.5c-1.1,0-2.1,0.2-3.1,0.7l-0.3-1.2c1-0.5,2.2-0.7,3.6-0.7c1.2,0,2.1,0.3,2.8,0.8
			s0.9,1.3,0.9,2.2v3.7c0,0.3,0.1,0.5,0.2,0.7C185.7,143.8,185.9,143.9,186.2,143.9z M181.2,143.9c1,0,1.9-0.4,2.7-1.3v-1.5
			c-0.6-0.1-1.3-0.2-2-0.2c-1.7,0-2.5,0.5-2.5,1.5c0,0.5,0.2,0.8,0.5,1.1C180.2,143.7,180.7,143.9,181.2,143.9z"/>
		<path d="M192.6,136.2c1,0,1.7,0.3,2.3,0.8c0.5,0.5,0.8,1.3,0.8,2.3v5.6h-1.5v-5.5c0-0.6-0.2-1.1-0.5-1.4s-0.9-0.5-1.5-0.5
			c-0.9,0-1.7,0.4-2.4,1.2v6.3h-1.5v-8.5h1.4l0.1,1.3C190.4,136.7,191.4,136.2,192.6,136.2z"/>
		<path d="M207.2,133.3c2.9,0,4.4,1,4.4,3.1c0,1.2-0.6,2-1.7,2.4c0.7,0.1,1.2,0.5,1.5,1c0.3,0.5,0.5,1.1,0.5,1.7
			c0,1.1-0.4,2-1.1,2.5c-0.7,0.5-1.8,0.8-3.2,0.8h-5.4v-11.6H207.2z M207.2,138c0.6,0,1.1-0.1,1.4-0.3c0.3-0.2,0.5-0.5,0.5-1
			c0-0.5-0.2-0.8-0.5-1s-0.8-0.3-1.4-0.3h-2.4v2.7H207.2z M204.8,140v2.9h2.8c1.2,0,1.9-0.5,1.9-1.4c0-1-0.6-1.5-1.9-1.5H204.8z"/>
		<path d="M222.1,140.4c0,0.1,0,0.4-0.1,0.9h-6.1c0.1,0.7,0.4,1.2,0.8,1.5c0.4,0.4,1,0.5,1.7,0.5c1,0,2-0.2,2.8-0.6l0.4,1.6
			c-0.9,0.5-2.1,0.7-3.5,0.7c-1.6,0-2.8-0.4-3.6-1.2c-0.8-0.8-1.2-1.9-1.2-3.2c0-1.3,0.4-2.4,1.2-3.2s1.9-1.2,3.3-1.2
			c1.4,0,2.5,0.4,3.1,1.2S222.1,139.2,222.1,140.4z M215.9,139.8h3.8c0-1.3-0.6-1.9-1.8-1.9C216.8,137.9,216.1,138.5,215.9,139.8z"
			/>
		<path d="M232.1,140.4c0,0.1,0,0.4-0.1,0.9H226c0.1,0.7,0.4,1.2,0.8,1.5c0.4,0.4,1,0.5,1.7,0.5c1,0,2-0.2,2.8-0.6l0.4,1.6
			c-0.9,0.5-2.1,0.7-3.5,0.7c-1.6,0-2.8-0.4-3.6-1.2c-0.8-0.8-1.2-1.9-1.2-3.2c0-1.3,0.4-2.4,1.2-3.2s1.9-1.2,3.3-1.2
			c1.4,0,2.5,0.4,3.1,1.2S232.1,139.2,232.1,140.4z M226,139.8h3.8c0-1.3-0.6-1.9-1.8-1.9C226.8,137.9,226.2,138.5,226,139.8z"/>
		<path d="M241,142.4h-1.4l-3.2-4.8v7.3h-2.3v-11.6h2.4l3.9,5.9l3.8-5.9h2.4v11.4l-2.5,0.3v-7.5L241,142.4z"/>
		<path d="M257.4,140.4c0,0.1,0,0.4-0.1,0.9h-6.1c0.1,0.7,0.4,1.2,0.8,1.5c0.4,0.4,1,0.5,1.7,0.5c1,0,2-0.2,2.8-0.6l0.4,1.6
			c-0.9,0.5-2.1,0.7-3.5,0.7c-1.6,0-2.8-0.4-3.6-1.2c-0.8-0.8-1.2-1.9-1.2-3.2c0-1.3,0.4-2.4,1.2-3.2c0.8-0.8,1.9-1.2,3.3-1.2
			c1.4,0,2.5,0.4,3.1,1.2C257.1,138.2,257.4,139.2,257.4,140.4z M251.2,139.8h3.8c0-1.3-0.6-1.9-1.8-1.9
			C252.1,137.9,251.4,138.5,251.2,139.8z"/>
		<path d="M262.6,136.2c1.1,0,2,0.5,2.7,1.4v-4.9l2.4-0.3v12.4h-2.2l-0.2-1.2c-0.7,0.9-1.6,1.4-2.7,1.4c-1.2,0-2.1-0.4-2.8-1.2
			c-0.7-0.8-1-1.9-1-3.2s0.3-2.4,1-3.2C260.5,136.6,261.4,136.2,262.6,136.2z M263.4,143.3c0.7,0,1.4-0.3,1.9-0.9v-3.6
			c-0.5-0.6-1.2-0.8-1.9-0.8c-0.7,0-1.2,0.2-1.6,0.7c-0.4,0.5-0.6,1.1-0.6,1.9s0.2,1.4,0.6,1.9C262.2,143,262.7,143.3,263.4,143.3z"
			/>
		<path d="M271.1,135.2l-1.7-1.6l1.7-1.6l1.6,1.6L271.1,135.2z M272.3,144.9h-2.4v-8.5h2.4V144.9z"/>
		<path d="M282.8,143.3c0.2,0,0.4,0,0.5-0.1v1.7c-0.4,0.1-0.8,0.2-1.3,0.2c-1.2,0-1.9-0.5-2.1-1.4c-0.7,0.9-1.7,1.4-3,1.4
			c-0.9,0-1.6-0.2-2.1-0.7c-0.5-0.5-0.8-1.1-0.8-1.8c0-1,0.4-1.7,1.1-2.2c0.7-0.5,1.7-0.7,3-0.7c0.4,0,0.9,0,1.6,0.1v-0.6
			c0-0.8-0.6-1.3-1.9-1.3c-1,0-2,0.2-3,0.7l-0.4-1.7c1.1-0.5,2.3-0.7,3.8-0.7c1.3,0,2.3,0.3,3,0.8c0.7,0.6,1,1.4,1,2.4v3.1
			c0,0.3,0,0.5,0.1,0.6C282.4,143.2,282.6,143.3,282.8,143.3z M277.8,143.3c0.7,0,1.4-0.3,2-0.8v-1.1c-0.4-0.1-0.9-0.1-1.5-0.1
			c-1.2,0-1.9,0.4-1.9,1.1c0,0.3,0.1,0.6,0.4,0.8C277.1,143.2,277.4,143.3,277.8,143.3z"/>
		<path d="M288,142.6c1.2,0.8,2.5,1.2,3.9,1.2c0.8,0,1.5-0.1,2-0.4c0.5-0.3,0.8-0.8,0.8-1.4c0-0.4-0.1-0.7-0.4-1
			c-0.2-0.3-0.6-0.5-0.9-0.7s-0.8-0.3-1.3-0.5s-0.9-0.3-1.4-0.5s-0.9-0.4-1.3-0.6c-0.4-0.2-0.7-0.5-0.9-1c-0.2-0.4-0.4-0.9-0.4-1.4
			c0-1,0.4-1.8,1.1-2.3c0.7-0.5,1.7-0.7,2.8-0.7c1.4,0,2.7,0.3,4,1l-0.2,1.4c-1.2-0.7-2.4-1.1-3.6-1.1c-1.7,0-2.5,0.5-2.5,1.6
			c0,0.4,0.1,0.7,0.4,0.9s0.6,0.5,0.9,0.6c0.4,0.2,0.8,0.3,1.3,0.4c0.5,0.1,0.9,0.3,1.4,0.5c0.5,0.2,0.9,0.4,1.3,0.6
			c0.4,0.2,0.7,0.6,0.9,1c0.2,0.4,0.4,0.9,0.4,1.5c0,1.1-0.4,2-1.2,2.5s-1.8,0.8-3,0.8c-1.6,0-2.9-0.3-4.1-1V142.6z"/>
		<path d="M306.3,140.4c0,0.3,0,0.6,0,0.7h-6.7c0.1,0.9,0.4,1.6,0.9,2.1c0.5,0.5,1.3,0.7,2.2,0.7c1,0,2-0.2,2.9-0.7l0.3,1.1
			c-1,0.5-2.1,0.7-3.3,0.7c-1.5,0-2.7-0.4-3.5-1.2c-0.8-0.8-1.2-1.9-1.2-3.2c0-1.3,0.4-2.4,1.2-3.2c0.8-0.8,1.9-1.2,3.2-1.2
			c0.7,0,1.4,0.1,1.9,0.3s0.9,0.5,1.2,1s0.5,0.8,0.6,1.3C306.2,139.3,306.3,139.8,306.3,140.4z M299.6,140h5.2
			c0-0.8-0.2-1.4-0.6-1.9c-0.4-0.5-1-0.7-1.9-0.7c-0.7,0-1.3,0.2-1.8,0.7S299.7,139.1,299.6,140z"/>
		<path d="M313.4,137.7c-0.7,0-1.4,0.2-2,0.5c-0.6,0.3-1.1,0.7-1.4,1.2v5.5h-1.5v-8.5h1.4l0.1,1.9c0.3-0.6,0.8-1.1,1.4-1.5
			c0.6-0.4,1.2-0.6,1.9-0.6L313.4,137.7z"/>
		<path d="M318.8,143l2.8-6.6h1.7l-3.9,8.7h-1.3l-3.9-8.7h1.7L318.8,143z"/>
		<path d="M325.7,134.8l-1.2-1.1l1.2-1.1l1.1,1.1L325.7,134.8z M326.5,144.9H325v-8.5h1.5V144.9z"/>
		<path d="M333.3,143.9c0.8,0,1.7-0.2,2.7-0.7l0.3,1.1c-1,0.5-2,0.7-3.1,0.7c-1.4,0-2.5-0.4-3.3-1.2c-0.8-0.8-1.2-1.9-1.2-3.2
			s0.4-2.4,1.2-3.2c0.8-0.8,1.9-1.2,3.3-1.2c1.1,0,2.1,0.2,3.1,0.7l-0.3,1.1c-0.9-0.5-1.8-0.7-2.7-0.7c-0.9,0-1.7,0.3-2.3,0.9
			s-0.9,1.4-0.9,2.4s0.3,1.8,0.9,2.4S332.3,143.9,333.3,143.9z"/>
		<path d="M346,140.4c0,0.3,0,0.6,0,0.7h-6.7c0.1,0.9,0.4,1.6,0.9,2.1c0.5,0.5,1.3,0.7,2.2,0.7c1,0,2-0.2,2.9-0.7l0.3,1.1
			c-1,0.5-2.1,0.7-3.3,0.7c-1.5,0-2.7-0.4-3.5-1.2c-0.8-0.8-1.2-1.9-1.2-3.2c0-1.3,0.4-2.4,1.2-3.2c0.8-0.8,1.9-1.2,3.2-1.2
			c0.7,0,1.4,0.1,1.9,0.3c0.5,0.2,0.9,0.5,1.2,1c0.3,0.4,0.5,0.8,0.6,1.3C345.9,139.3,346,139.8,346,140.4z M339.3,140h5.2
			c0-0.8-0.2-1.4-0.6-1.9c-0.4-0.5-1-0.7-1.9-0.7c-0.7,0-1.3,0.2-1.8,0.7S339.4,139.1,339.3,140z"/>
	</g>
</g>
</svg>
