<?xml version="1.0" encoding="utf-8"?>
<!-- Generator: Adobe Illustrator 24.1.1, SVG Export Plug-In . SVG Version: 6.00 Build 0)  -->
<svg version="1.1" id="Outline" xmlns="http://www.w3.org/2000/svg" xmlns:xlink="http://www.w3.org/1999/xlink" x="0px" y="0px"
	 viewBox="0 0 512 512" style="enable-background:new 0 0 512 512;" xml:space="preserve">
<style type="text/css">
	.st0{fill:#FFFFFF;}
</style>
<path class="st0" d="M405.3,0H106.7C47.8,0.1,0.1,47.8,0,106.7v298.7C0.1,464.2,47.8,511.9,106.7,512h298.7
	c58.9-0.1,106.6-47.8,106.7-106.7V106.7C511.9,47.8,464.2,0.1,405.3,0z M106.7,42.7h298.7c35.3,0,64,28.7,64,64v298.7
	c0,9.5-2.2,18.9-6.4,27.4L267.5,237.3c-41.7-41.7-109.2-41.7-150.8,0c0,0,0,0,0,0l-73.9,73.9V106.7C42.7,71.3,71.3,42.7,106.7,42.7z
	 M106.7,469.3c-35.3,0-64-28.7-64-64v-33.8l104.1-104.1c25-25,65.5-25,90.5,0c0,0,0,0,0,0l195.5,195.5c-8.5,4.2-17.9,6.4-27.4,6.4
	H106.7z"/>
<path class="st0" d="M341.3,224c41.2,0,74.7-33.4,74.7-74.7s-33.4-74.7-74.7-74.7s-74.7,33.4-74.7,74.7S300.1,224,341.3,224z
	 M341.3,117.3c17.7,0,32,14.3,32,32s-14.3,32-32,32c-17.7,0-32-14.3-32-32S323.7,117.3,341.3,117.3z"/>
</svg>
